<?xml version="1.0" encoding="UTF-8"?>
<svg width="16px" height="16px" viewBox="0 0 16 16" version="1.1" xmlns="http://www.w3.org/2000/svg" xmlns:xlink="http://www.w3.org/1999/xlink">
    <g id="plane" stroke="none" stroke-width="1" fill="none" fill-rule="evenodd">
        <path d="M1.3311718,6.36592184 C5.3576954,4.67244493 8.04267511,3.5560013 9.38611094,3.01659096 C13.2218932,1.47646481 14.0189359,1.2089284 14.5384372,1.2 C14.6526967,1.19815119 14.9081723,1.22548649 15.0736587,1.35511219 C15.2133922,1.4645656 15.2518384,1.61242159 15.2702362,1.71619544 C15.288634,1.81996929 15.3115436,2.05636876 15.2933322,2.24108442 C15.0854698,4.34939964 14.1860526,9.46572464 13.7284802,11.8270738 C13.5348641,12.8262491 13.1536281,13.1612675 12.7845475,13.1940535 C11.9824498,13.265305 11.3733733,12.6823476 10.5965026,12.190753 C9.3808532,11.4215044 8.69408865,10.9426448 7.51409044,10.1920004 C6.15039834,9.32450079 7.03442319,8.84770795 7.81158733,8.06849502 C8.01497489,7.86457129 11.5490353,4.7615061 11.6174372,4.48000946 C11.625992,4.44480359 11.6339313,4.31357282 11.5531696,4.24427815 C11.472408,4.17498349 11.3532107,4.19867957 11.2671947,4.21752527 C11.1452695,4.24423848 9.20325394,5.48334063 5.44114787,7.93483171 C4.88991321,8.30022994 4.39062196,8.47826423 3.94327414,8.46893456 C3.45010907,8.45864936 2.50145729,8.19975808 1.79623221,7.97846422 C0.931244952,7.70703829 0.243770289,7.56353344 0.303633888,7.10256824 C0.334814555,6.86246904 0.677327192,6.61692024 1.3311718,6.36592184 Z" id="Path-3" fill="#FFFFFF"></path>
    </g>
</svg>