<?xml version="1.0" encoding="UTF-8"?>
<svg width="83px" height="120px" viewBox="0 0 83 120" version="1.1" xmlns="http://www.w3.org/2000/svg" xmlns:xlink="http://www.w3.org/1999/xlink">
    <title>record_td_portrait</title>
    <g id="record_td_portrait" stroke="none" stroke-width="1" fill="none" fill-rule="evenodd">
        <path d="M77,9.55160931 L77,84.7273399 C77,85.3811732 76.470394,86 75.8170923,86 L7.18290784,86 C6.52960589,86 6,85.3811732 6,84.7273399 L6,9.55160931 C6,7.59010964 7.58881763,6 9.5487235,6 L73.4512766,6 C75.4111823,6 77,7.59010964 77,9.55160931 Z" id="Rectangle" fill="#0A9AD8" fill-rule="nonzero"></path>
        <path d="M77,89.8056802 L77,110.134529 C77,112.11582 75.7238703,114 73.7458927,114 L55.8305058,114 C55.1711798,114 55,112.66043 55,112 L55,89.5084229 C55,88.8479926 55.9805666,88 56.6398926,88 C57.0794432,88 63.57732,88 76.1335231,88 C76.7928488,88 77,89.14525 77,89.8056802 Z" id="Rectangle" fill="#FFCA3D" fill-rule="nonzero"></path>
        <path d="M53,89.5047607 L53,111.526158 C53,112.186589 51.6593259,114 51,114 L32.3484913,114 C31.6891654,114 30,112.186589 30,111.526158 C30,97.0575332 30,89.7170673 30,89.5047607 C30,89.1863009 31.6615311,88 32.0029297,88 L51.1621094,88 C51.8214353,88 53,88.8443305 53,89.5047607 Z" id="Rectangle-Copy-5" fill="#FE5BA3" fill-rule="nonzero"></path>
        <path d="M28,90 L28,112 C28,112.66043 26.6593259,114 26,114 L9,114 C7.02202225,114 6,113.11582 6,111.134529 L6,89.8056802 C6,89.14525 7.20715113,88 7.86647705,88 L26.1694942,88 C26.8288202,88 28,89.3395698 28,90 Z" id="Rectangle-Copy-6" fill="#4DC17B" fill-rule="nonzero"></path>
        <path d="M41.3656958,92.5560538 C46.2043205,92.5560538 50.1287584,96.3592496 50.1287584,101.054127 C50.1287584,103.069033 49.4065002,104.921367 48.1993694,106.374661 C49.6034796,107.926483 50.2297735,110.054696 50.2297735,112.409524 C50.2297735,112.793785 50.2045197,113.630519 50.1540122,114 L32.5773794,114 C32.5268719,113.630519 32.5016181,112.793785 32.5016181,112.409524 C32.5016181,110.054696 33.1279119,107.926483 34.5320221,106.374661 C33.3248914,104.921367 32.6026332,103.069033 32.6026332,101.054127 C32.6026332,96.3592496 36.5270711,92.5560538 41.3656958,92.5560538 Z" id="Path" fill="#FFE934" fill-rule="nonzero"></path>
        <path d="M35.5300673,106.874427 C35.6619508,106.666553 35.9370974,106.605129 36.1446243,106.737234 C36.6086526,107.032618 37.0997263,107.284407 37.6206979,107.492285 C38.7751269,107.951388 40.0502062,108.194849 41.3656958,108.194849 C42.6811854,108.194849 43.9562647,107.951388 45.1089166,107.492997 C45.6346668,107.281287 46.1304986,107.027678 46.5867673,106.737234 C46.7942941,106.605129 47.0694408,106.666553 47.2013243,106.874427 C47.3332078,107.082302 47.2718866,107.357909 47.0643598,107.490013 C46.5614652,107.810139 46.0169132,108.088667 45.4392689,108.321269 C44.1800966,108.822026 42.7935134,109.086778 41.3656958,109.086778 C39.9378782,109.086778 38.551295,108.822026 37.2916478,108.321079 C36.7184525,108.092363 36.1778208,107.815164 35.6670318,107.490013 C35.459505,107.357909 35.3981838,107.082302 35.5300673,106.874427 Z" id="Path" fill="#FF9000" fill-rule="nonzero"></path>
        <ellipse id="Oval" fill="#000000" fill-rule="nonzero" cx="37.8806738" cy="100.487589" rx="1.33845047" ry="1.52719005"></ellipse>
        <ellipse id="Oval-Copy-3" fill="#FFFFFF" fill-rule="nonzero" cx="37.5776284" cy="100.118108" rx="1" ry="1"></ellipse>
        <ellipse id="Oval-Copy-2" fill="#000000" fill-rule="nonzero" cx="44.8507178" cy="100.487589" rx="1.33845047" ry="1.52719005"></ellipse>
        <path d="M41.4162033,101.177288 C42.1687662,101.177288 42.5172681,101.482726 42.8051613,101.798017 L42.8405166,101.837428 L42.9566841,101.970442 L42.9920394,102.009853 L43.0273947,102.044338 C43.2395264,102.275879 43.4668104,102.458157 43.8708711,102.458157 C45.19922,102.458157 45.8255138,102.857197 45.840666,103.66513 L45.840666,103.689762 L45.840666,103.729173 C45.7901585,105.064233 43.3960998,105.837681 41.4566095,105.857387 L41.3960005,105.857387 L41.3707464,105.857387 L41.3454927,105.857387 C39.3959008,105.857387 36.9513346,105.079012 36.9008271,103.729173 L36.9008271,103.689762 C36.9008271,102.862123 37.5321716,102.458157 38.870622,102.458157 C39.2544796,102.458157 39.4767128,102.290659 39.6787431,102.078823 L39.7140984,102.044338 L39.7494537,102.009853 L39.784809,101.970442 L39.9009765,101.837428 C39.9060272,101.832502 39.9110778,101.822649 39.9161287,101.817722 L39.951484,101.778311 C40.2343263,101.472873 40.5828285,101.177288 41.3202389,101.177288 C41.3353911,101.177288 41.3555942,101.177288 41.3707464,101.177288 C41.380848,101.177288 41.4010511,101.177288 41.4162033,101.177288 Z" id="Path" fill="#FF4B00" fill-rule="nonzero"></path>
        <path d="M44.2902005,103.331896 C44.514676,103.231372 44.7780041,103.33216 44.8783603,103.557011 C44.9787161,103.781863 44.8780973,104.045632 44.6536215,104.146156 C43.7850075,104.535136 42.6976887,104.726897 41.3909496,104.726897 C40.0842107,104.726897 38.9968916,104.535136 38.1282776,104.146156 C37.9038018,104.045632 37.803183,103.781863 37.9035388,103.557011 C38.003895,103.33216 38.2672231,103.231372 38.4916986,103.331896 C39.2345824,103.664572 40.2007594,103.834968 41.3909496,103.834968 C42.5811397,103.834968 43.5473167,103.664572 44.2902005,103.331896 Z" id="Path" fill="#921000" fill-rule="nonzero"></path>
        <ellipse id="Oval-Copy-4" fill="#FFFFFF" fill-rule="nonzero" cx="44.4971649" cy="100.118108" rx="1" ry="1"></ellipse>
        <path d="M70.8949759,50.0041797 C70.8949759,50.0120623 71.6193972,52.4693865 72.0003017,55.0309609 C72.36058,57.4538236 72.3784903,59.9893162 72.3784903,59.9744042 C72.4243721,61.5082851 72.4855479,63.5943627 69.2585219,66.8768674 C69.2891099,66.8615287 69.0597003,67.1069497 67.3314827,68.6101528 C69.9467501,74.2394949 70.6423464,80.6774339 70,86 L12,86 C11.3423596,80.5393847 12.0285146,74.1321234 14.5979003,68.5948138 C14.5826063,68.5794751 12.9614463,67.1529662 12.9767402,67.1683049 C11.2485225,65.4810361 9.53559871,63.256909 9.53559871,60.8487164 C9.53559871,60.8415363 9.35005086,59.4393285 9.58307734,56.6233709 C9.81610381,53.8074135 11.5849897,48.2555556 11.6920474,47.8260689 C15.8061233,33.2388635 29.8765688,16.0593993 34.6176969,17.1331158 C35.8412139,17.4092144 37.0494371,18.8817398 38.1506024,21.0598505 C38.8235366,22.4403431 39.6341168,24.679809 39.7870565,25.1246344 C42.4787938,25.0939568 42.0046808,25.1246344 42.2493842,25.1246344 C42.7846729,23.5447372 43.1517282,22.685764 43.1364342,22.7011028 C43.8858382,20.8757848 45.4764105,17.5779412 47.4034497,17.1331158 C52.2975175,16.0287217 67.3620705,34.4199517 70.8949759,50.0041797 Z" id="Path" fill="#FFFFFF" fill-rule="nonzero"></path>
        <path d="M32.9005543,22.0030227 C33.9632333,21.9166069 34.963137,22.5361432 35.978631,23.6148879 C36.6603151,24.4308051 37.0102259,24.8507314 37.0283637,24.8746668 C37.4875608,25.480645 37.3693925,26.3447635 36.7644275,26.8047296 C36.1594625,27.2646955 35.296789,27.1463295 34.8375919,26.5403512 C34.5631227,26.1891291 34.4198088,26.0061091 34.4076495,25.9912914 L33.1728885,24.8178571 L33.1384887,24.798296 L32.0197051,26.2775265 C31.9500815,26.3939059 31.7084094,26.8657945 31.2946888,27.6931921 C30.9779248,28.3846418 30.1615433,28.6879542 29.47125,28.3706594 C28.7809567,28.0533646 28.4781515,27.235616 28.7949158,26.5441664 L29.0689613,25.9638374 C29.1878866,25.7204046 29.3830239,25.3563548 29.6543732,24.871688 C30.6704437,23.1393033 31.6883779,22.0919358 32.9005543,22.0030227 Z" id="Path" fill="#CABCB4" fill-rule="nonzero"></path>
        <path d="M59.9250284,70.470417 C60.5907959,70.1042935 61.4268122,70.3481069 61.7923232,71.0149891 C62.1578345,71.6818714 61.9144291,72.5192879 61.2486619,72.8854114 C60.1708094,73.4781517 59.0331217,74.0465634 57.8643917,74.5832575 C55.8344814,75.4507908 54.7945054,75.8944644 54.7444634,75.9142781 L51.8208614,76.9938019 C51.5229846,77.0959534 50.0797605,77.5328586 47.491189,78.304518 C47.4452449,78.3164594 46.5898273,78.5127288 44.9249362,78.893326 C43.4299582,79.1856826 42.1080728,79.3443299 41.0564553,79.3443299 C39.7814992,79.3443299 38.1093584,79.1134956 36.2126274,78.6955434 L32.8971008,77.8402262 C32.8490086,77.8261773 31.6650748,77.4418378 29.3453003,76.6872075 C26.736758,75.6646865 25.3828749,75.131972 25.2836511,75.0890648 L21.8072286,73.4496944 C21.2548316,73.1588395 20.910981,72.9764413 20.7756767,72.9025001 C20.1089447,72.5381424 19.863328,71.7013738 20.2270764,71.0335251 C20.5908248,70.3656764 21.4261942,70.1196484 22.0929262,70.4840061 C22.7318509,70.8331674 23.3937206,71.1735498 24.0714476,71.5034171 L27.4172895,72.9989161 C27.488322,73.0280935 30.9737702,74.3390457 31.0442904,74.3632022 L35.1284016,75.6037967 C35.2146311,75.6264167 36.2946166,75.8645387 38.3683587,76.3181626 C39.4050158,76.4949659 40.317253,76.5893204 41.0564553,76.5893204 C41.7147312,76.5893204 42.510705,76.5135554 43.4097792,76.3706031 C46.5152503,75.6523601 48.0902116,75.2867992 48.134663,75.2739207 L51.0179006,74.3573626 L54.4143724,73.0773393 C57.0968824,71.8689821 58.7409958,71.1041222 59.3467129,70.7827604 L59.7335668,70.5750708 C59.7976103,70.5402751 59.8614333,70.5053898 59.9250284,70.470417 Z" id="Path" fill="#CABCB4" fill-rule="nonzero"></path>
        <path d="M40.0929357,54.7745486 C41.2246887,56.3697845 43.3046677,57.4895174 45.7517016,57.6275669 L45.7517016,58.3178131 C45.7517016,62.6740343 44.4670088,66.20196 40.9952794,66.20196 C37.5694319,66.20196 36.269445,62.7353895 36.238857,58.4405236 C36.238857,57.8269714 36.238857,57.453727 36.238857,57.3207907 C37.8906051,56.8759652 39.2517677,55.9709755 40.0929357,54.7745486 Z" id="Path" fill="#F23C57" fill-rule="nonzero"></path>
        <path d="M26.6340641,50.4251868 C27.3745179,50.2558692 28.1118037,50.7198721 28.2808382,51.461566 C28.7065264,53.3294131 29.7587676,54.9294245 31.2167327,55.89599 C34.1148977,57.8173434 37.83215,56.6634823 39.5688565,53.2180259 C39.9111724,52.5389048 40.7382899,52.266335 41.4162753,52.6092239 C42.0942609,52.9521132 42.366375,53.7806161 42.0240593,54.459737 C39.5681884,59.3319447 34.0158382,61.0554331 29.6987457,58.1933943 C27.6315698,56.8229494 26.1777382,54.6122898 25.5994178,52.0747189 C25.4303833,51.333025 25.8936103,50.5945044 26.6340641,50.4251868 Z" id="Path" fill="#000000" fill-rule="nonzero"></path>
        <path d="M52.9909044,51.461566 C53.1599388,50.7198721 53.8972246,50.2558692 54.6376784,50.4251868 C55.3781321,50.5945044 55.8413591,51.333025 55.6723247,52.0747189 C55.0940043,54.6122898 53.6401726,56.8229494 51.5729968,58.1933943 C47.2559044,61.0554331 41.7035539,59.3319447 39.2476833,54.459737 C38.9053676,53.7806161 39.1774816,52.9521132 39.855467,52.6092239 C40.5334526,52.266335 41.3605702,52.5389048 41.7028861,53.2180259 C43.4395926,56.6634823 47.1568449,57.8173434 50.0550098,55.89599 C51.5129747,54.9294245 52.5652162,53.3294131 52.9909044,51.461566 Z" id="Path-Copy" fill="#000000" fill-rule="nonzero"></path>
        <path d="M40.7505761,54.8205651 C42.8611428,54.8205651 45.8128774,51.7221261 45.8128774,49.09919 C45.8128774,46.476254 43.9776021,46.2001555 40.6741062,46.2001555 C37.3706103,46.2001555 35.5353347,46.476254 35.5353347,49.09919 C35.5353347,51.7221261 38.6400091,54.8205651 40.7505761,54.8205651 Z" id="Oval" fill="#000000" fill-rule="nonzero"></path>
        <path d="M30.8553824,39.7731952 C28.7448154,40.3407312 27.5671803,42.7949403 27.8424717,43.8226404 C28.1177631,44.8503404 30.1365662,45.5405868 32.2471329,44.9730509 C34.3576996,44.4055149 35.7341563,42.6722298 35.4894529,41.7672401 C35.2447496,40.8469117 32.9659491,39.2056593 30.8553824,39.7731952 Z" id="Oval-Copy-3" fill="#000000" fill-rule="nonzero"></path>
        <path d="M51.1963522,39.7731952 C53.3069192,40.3407312 54.4845541,42.7949403 54.209263,43.8226404 C53.9339716,44.8503404 51.9151685,45.5405868 49.8046018,44.9730509 C47.6940348,44.4055149 46.3175784,42.6722298 46.5622817,41.7672401 C46.8069851,40.8622507 49.0704915,39.2056593 51.1963522,39.7731952 Z" id="Oval-Copy-4" fill="#000000" fill-rule="nonzero"></path>
        <path d="M45.7813355,23.7146376 C46.8371928,22.5692392 47.8617144,21.9143328 48.9415635,22.0021877 C50.1390566,22.0900661 51.1399665,23.0960787 52.1293061,24.7546436 C52.4600732,25.3399201 52.7006813,25.7892418 52.8511305,26.1026089 C52.9734037,26.3628448 53.0423593,26.5100306 53.0579974,26.5441664 C53.3747617,27.235616 53.0719564,28.0533646 52.3816632,28.3706594 C51.6913699,28.6879542 50.8749883,28.3846418 50.5582241,27.6931921 L49.8271096,26.2672316 C49.491413,25.694874 48.783275,24.8567879 48.7380005,24.8181883 C48.3488479,25.0798893 48.05713,25.3133423 47.8628472,25.5185476 L47.0153213,26.5403512 C46.5561242,27.1463295 45.6934506,27.2646955 45.0884857,26.8047296 C44.4835207,26.3447635 44.3653523,25.480645 44.8245494,24.8746668 L45.7813355,23.7146376 Z" id="Path-Copy-2" fill="#CABCB4" fill-rule="nonzero"></path>
        <path d="M31.2896089,42.4790225 C31.8868691,41.8800102 32.0805392,41.1030581 31.7221831,40.7436509 C31.3638265,40.3842439 30.5891458,40.5784819 29.9918848,41.1774934 C29.3946246,41.7765057 29.2009544,42.5534578 29.5593106,42.912865 C29.9176672,43.2722723 30.6923479,43.078034 31.2896089,42.4790225 Z" id="Oval-Copy-7" fill="#FFFFFF" fill-rule="nonzero"></path>
        <path d="M49.6453766,42.6009969 C50.3537945,42.1396445 50.7043371,41.4200626 50.4283355,40.9937656 C50.1523337,40.5674683 49.3543034,40.5958857 48.645885,41.0572372 C47.9374671,41.5185893 47.5869243,42.2381712 47.8629261,42.6644685 C48.138928,43.0907656 48.9369579,43.0623482 49.6453766,42.6009969 Z" id="Oval-Copy-8" fill="#FFFFFF" fill-rule="nonzero"></path>
        <path d="M66.9321135,93.0941704 C71.9620717,93.0941704 74.6224662,96.5136105 74.8597814,100.299269 C75.0903297,103.97698 74.8864994,109.734446 73.5737187,114 L60.4683894,114 C59.8201299,110.641304 59.0583435,106.103392 59.0708333,102.745914 C58.2703012,102.28342 57.7397077,101.942959 57.4790528,101.724531 C56.5230255,100.92338 56.0951503,100.289474 56.1653772,99.9268843 C56.4555779,98.4285457 57.6477029,98.1848639 59.3465338,98.3764862 C60.236099,95.4301945 62.7757854,93.0941704 66.9321135,93.0941704 Z" id="Path" fill="#4CBFEA" fill-rule="nonzero"></path>
        <path d="M56.1519564,100.373352 C57.2689339,100.380813 63.9645721,102.365468 64.0937051,102.38832 C65.1453207,102.574417 65.8769584,102.36382 66.288618,101.756529 L66.2944157,102.136712 C66.1890419,109.90225 66.1357887,113.793885 66.134656,113.811617 L60.1997673,113.811617 C59.2619825,110.434873 58.9120016,106.12291 58.9244911,102.765448 L58.8393841,102.715796 C57.488709,101.858656 56.8090672,101.426269 56.8004585,101.418636 L56.7621593,101.384158 C56.4340734,101.084255 56.2067832,100.755525 56.1519564,100.373352 Z" id="Path" fill="#FFFFFF" fill-rule="nonzero"></path>
        <path d="M68.5645035,97.8576051 C69.8975496,98.1911701 70.7084588,99.5456177 70.3762719,100.882752 C70.3182089,101.11647 70.0819904,101.258787 69.8486634,101.200627 C69.6153362,101.142467 69.4732566,100.905853 69.5313195,100.672135 C69.7475348,99.8018158 69.2199484,98.9205974 68.3534746,98.7037819 C67.4872995,98.4870414 66.6098296,99.0161801 66.3936885,99.8862008 C66.3356256,100.119919 66.099407,100.262236 65.8660801,100.204076 C65.6327528,100.145916 65.4906732,99.9093016 65.5487362,99.6755836 C65.8809975,98.338151 67.2311585,97.5239664 68.5645035,97.8576051 Z" id="Path" fill="#000000" fill-rule="nonzero"></path>
        <path d="M65.9592058,101.164067 C66.1994035,101.174942 66.3853214,101.378802 66.3744647,101.619402 C66.3292722,102.620952 65.5149871,102.987632 64.2373853,102.761546 C64.1369462,102.743771 63.7052745,102.62541 62.9423702,102.406465 L61.4735479,101.894876 C59.6433036,101.262038 58.1973547,100.884541 56.4669046,100.671696 C56.2282541,100.642342 56.058546,100.424757 56.0878509,100.185707 C56.1171558,99.9466569 56.3343767,99.7766645 56.5730272,99.8060185 C58.2987428,100.018282 59.7490241,100.386981 61.5242211,100.99039 L63.1800754,101.566305 C63.8854556,101.772763 64.2883865,101.884883 64.3888678,101.902665 C65.1937817,102.045105 65.4720533,101.935096 65.5024952,101.611029 C65.646837,101.305804 65.7990738,101.156817 65.9592058,101.164067 Z" id="Path" fill="#1683AC" fill-rule="nonzero"></path>
        <path d="M69.2123975,104.194477 C69.3360842,104.004652 69.5823186,103.943183 69.7787275,104.046354 L69.8149281,104.067637 L71.8902236,105.4244 C72.0010659,105.496865 72.0722933,105.615371 72.0854302,105.74574 L72.0876325,105.789589 L72.0876325,111.265095 C72.0876325,111.542059 71.8332283,111.748859 71.5626492,111.691844 C68.7210066,111.093063 67.3076337,108.622903 67.3076337,104.432827 C67.3076337,104.191981 67.5025513,103.996687 67.7429945,103.996687 C67.9834375,103.996687 68.178355,104.191981 68.178355,104.432827 C68.178355,107.939415 69.1827936,109.983657 71.1801596,110.682591 L71.2166861,110.694888 L71.2166861,106.025381 L69.3390246,104.798017 C69.1495176,104.674123 69.0881505,104.427476 69.1911501,104.230738 L69.2123975,104.194477 Z" id="Path-11" fill="#1683AC" fill-rule="nonzero"></path>
        <path d="M73.5439784,99.765205 C73.3105091,99.8227905 73.0746408,99.6798917 73.0171516,99.4460314 C72.9491623,99.169458 72.8539178,98.8886295 72.7326859,98.6085366 C72.4652919,97.9907521 72.0768,97.3881683 71.5871927,96.8422213 C71.097609,96.2963169 70.5414024,95.8454825 69.9575326,95.5139879 C69.6928528,95.3637148 69.4247424,95.2393098 69.1580126,95.142558 C68.9319365,95.0605528 68.8150327,94.8104965 68.8969008,94.5840417 C68.9787689,94.3575869 69.2284071,94.2404874 69.4544833,94.3224926 C69.7677806,94.4361358 70.0802649,94.5811305 70.3868886,94.7552174 C71.0533499,95.1336038 71.6831002,95.6440466 72.2349403,96.2593639 C72.7867267,96.8746526 73.226468,97.5567291 73.5315572,98.2616042 C73.6719056,98.5858633 73.7828282,98.9129193 73.8626181,99.2374959 C73.9201076,99.4713562 73.7774475,99.7076196 73.5439784,99.765205 Z" id="Path" fill="#FFFFFF" fill-rule="nonzero"></path>
        <path d="M17.0566343,91.2107623 C19.1691504,91.2107623 21.9975154,93.7271446 23.2722409,96.6746631 C24.8279544,100.271904 25.7864078,105.413595 25.7864078,106.50465 C25.7864078,106.966087 25.4556152,107.451901 24.9150599,107.925826 L24.0704404,108.554105 C24.6045043,109.714469 24.8510749,111.064375 24.8510749,112.504907 C24.8510749,112.85669 24.8280333,113.660466 24.7833831,114 L9.28534584,114 C9.24069562,113.660466 9.21765404,112.85669 9.21765404,112.504907 C9.21765404,111.099726 9.45227133,109.780777 9.95952763,108.63978 L9.75947568,108.502698 C8.8952793,107.890112 8.32686084,107.205759 8.32686084,106.50465 C8.32686084,105.249603 9.2775668,100.179388 10.8058353,96.649796 C12.0793069,93.7086667 14.9441182,91.2107623 17.0566343,91.2107623 Z" id="Path" fill="#112F40" fill-rule="nonzero"></path>
        <path d="M17.0705483,101.691758 C17.7997477,101.691758 18.2881087,101.590751 18.6932669,101.472919 L19.4304722,101.242282 C19.7145196,101.161514 20.0111192,101.104267 20.3952178,101.110565 C22.2655508,101.141231 22.4701879,105.376799 22.4565026,107.336843 C22.4459332,108.850616 18.4819034,110.204057 17.0566343,110.204057 C15.6313652,110.204057 11.4446371,108.850616 11.4446371,107.271601 L11.4479151,106.807635 C11.4751714,105.013632 11.7184861,101.090885 13.7604969,101.090885 C14.0173964,101.090885 14.2442386,101.131504 14.4705466,101.19162 L15.4535958,101.488866 C15.8711487,101.600365 16.3769196,101.691758 17.0705483,101.691758 Z" id="Mask" fill="#000000" fill-rule="nonzero"></path>
        <path d="M13.7604969,101.090885 C14.0173964,101.090885 14.2442386,101.131504 14.4705466,101.19162 L15.4535958,101.488866 C15.8711487,101.600365 16.3769196,101.691758 17.0705483,101.691758 C17.7997477,101.691758 18.2881087,101.590751 18.6932669,101.472919 L19.4304722,101.242282 C19.7145196,101.161514 20.0111192,101.104267 20.3952178,101.110565 C20.814183,101.117434 21.149566,101.3353 21.4176357,101.691319 L21.343961,103.485686 L21.0206641,105.647471 C20.229126,108.14204 18.9114691,108.850616 17.0789041,108.850616 C15.2463391,108.850616 13.939893,108.14204 13.1483549,105.647471 C13.0467586,105.090782 12.9484068,104.315482 12.8532995,103.321572 C12.809118,102.859857 12.7420749,101.530409 12.7417149,101.510236 C13.0182372,101.246586 13.3536701,101.090885 13.7604969,101.090885 Z" id="Path" fill="#FFFFFF" fill-rule="nonzero"></path>
        <path d="M17.0566343,107.767862 C18.3357602,107.767862 19.3726967,106.459536 19.3726967,105.692586 C19.3726967,104.396945 18.3357602,104.158685 17.0566343,104.158685 C15.7775084,104.158685 14.740572,104.396945 14.740572,105.692586 C14.740572,106.459536 15.7775084,107.767862 17.0566343,107.767862 Z" id="Oval" fill="#0D222E" fill-rule="nonzero"></path>
        <path d="M22.5514943,109.249521 C22.746438,109.141124 22.9921973,109.211549 23.100413,109.406819 C23.2086287,109.602089 23.1383217,109.84826 22.943378,109.956657 C22.472756,110.218343 21.6225831,110.59835 20.3928594,111.096677 C20.2765672,111.138352 20.0180506,111.224729 19.6173098,111.355806 C18.6005361,111.670521 17.6718474,111.857184 17.0582185,111.857184 C16.6832333,111.857184 15.8278904,111.690295 14.4921899,111.356519 C13.4164068,110.97155 12.8493324,110.766971 12.7909667,110.742782 C11.9338323,110.351522 11.3869967,110.090619 11.15046,109.960075 C10.9551746,109.852297 10.8840897,109.60635 10.9916875,109.410737 C11.0992853,109.215125 11.3448207,109.143921 11.5401061,109.251699 C11.9865528,109.498093 12.4715555,109.729708 12.9664902,109.939445 L15.3914133,110.772958 C16.0642095,110.948601 16.6520132,111.048401 17.0582185,111.048401 C17.4641206,111.048401 18.0500138,110.948543 18.7199873,110.772745 L19.8980163,110.413534 C20.4687448,110.216917 22.4405277,109.311223 22.5514943,109.249521 Z" id="Path" fill="#000000" fill-rule="nonzero"></path>
    </g>
</svg>