<?xml version="1.0" encoding="UTF-8"?>
<svg width="120px" height="77px" viewBox="0 0 120 77" version="1.1" xmlns="http://www.w3.org/2000/svg" xmlns:xlink="http://www.w3.org/1999/xlink">
    <title>record_td_landscape</title>
    <g id="record_td_landscape" stroke="none" stroke-width="1" fill="none" fill-rule="evenodd">
        <path d="M9.16666667,5.26258992 L88.0555555,5.26258992 C88.6692052,5.26258992 89.1666667,5.75844141 89.1666667,6.37010522 L89.1666667,70.6298949 C89.1666667,71.2415585 88.6692052,71.7374101 88.0555555,71.7374101 L9.16666667,71.7374101 C7.3257175,71.7374101 5.83333332,70.2498556 5.83333332,68.4148643 L5.83333332,8.58513578 C5.83333332,6.75014437 7.3257175,5.26258992 9.16666667,5.26258992 Z" id="Rectangle" fill="#0A9AD8" fill-rule="nonzero"></path>
        <path d="M74.175461,39.4799628 C74.175461,39.4869105 74.817287,41.6527331 75.1547623,43.9104391 C75.473963,46.0458881 75.4898313,48.2806063 75.4898313,48.2674632 C75.5304818,49.6193866 75.5846828,51.4580021 72.725589,54.3511176 C72.7526893,54.3375982 72.5494363,54.5539059 71.0182628,55.8787906 C73.3353483,60.8403487 73.9857583,67.0758169 73.4166495,71.7669903 L21.8987622,71.7669903 C21.3161033,66.9541439 22.0207141,60.7457142 24.2971489,55.8652715 C24.2835987,55.8517521 22.8472767,54.5944637 22.8608269,54.6079829 C21.3296535,53.1208674 19.8120303,51.160579 19.8120303,49.0380595 C19.8120303,49.0317313 19.6476379,47.7958611 19.8540957,45.3139483 C20.0605534,42.8320357 21.6277581,37.9387704 21.7226095,37.5602319 C25.3676153,24.7034427 37.8338058,9.56190341 42.03437,10.5082496 C43.1183865,10.7515958 44.1888528,12.049442 45.1644678,13.9691729 C45.7606768,15.1859037 46.4788378,17.1597116 46.61434,17.5517693 C48.9991763,17.5247308 48.57912,17.5517693 48.7959233,17.5517693 C49.2701805,16.1592884 49.5953855,15.4022114 49.5818353,15.4157307 C50.2457955,13.8069421 51.655017,10.9003073 53.362343,10.5082496 C57.6984093,9.53486495 71.0453633,25.7444235 74.175461,39.4799628 Z" id="Path" fill="#FFFFFF" fill-rule="nonzero"></path>
        <path d="M40.5130087,14.8004607 C41.4545255,14.724296 42.3404242,15.2703395 43.2401358,16.2211174 C43.844097,16.9402459 44.1541125,17.3103582 44.1701823,17.3314543 C44.5770235,17.8655479 44.4723282,18.6271598 43.936339,19.0325621 C43.4003495,19.4379644 42.6360345,19.3336395 42.2291933,18.7995458 C41.986018,18.4899876 41.859044,18.3286785 41.8482713,18.3156185 L40.7542925,17.2813836 L40.7238148,17.2641429 L39.7325905,18.5678988 C39.670905,18.6704726 39.4567875,19.0863831 39.0902378,19.8156303 C38.8095898,20.4250562 38.0862888,20.6923879 37.4746997,20.4127325 C36.863111,20.133077 36.5948303,19.4123342 36.8754783,18.8029084 L37.1182785,18.2914213 C37.2236442,18.0768659 37.396533,17.7560017 37.636944,17.3288288 C38.5371665,15.8019494 39.4390397,14.8788265 40.5130087,14.8004607 Z" id="Path" fill="#CABCB4" fill-rule="nonzero"></path>
        <path d="M64.4562625,57.51838 C65.0461218,57.1956882 65.7868188,57.4105788 66.110656,57.9983519 C66.434493,58.5861248 66.2188398,59.3242022 65.6289805,59.646894 C64.6740205,60.1693201 63.6660473,60.6703037 62.630571,61.1433322 C60.832103,61.9079537 59.9107008,62.2989963 59.8663643,62.3164596 L57.2760995,63.2679242 C57.0121855,63.3579578 55.7335118,63.7430351 53.4400788,64.4231557 C53.399373,64.4336807 52.6414868,64.6066673 51.1664195,64.9421162 C49.841893,65.1997916 48.6707235,65.3396191 47.739007,65.3396191 C46.6094163,65.3396191 45.1279263,65.1361679 43.4474528,64.7677954 L40.509949,64.0139408 C40.46734,64.0015585 39.4183938,63.6628116 37.3631103,62.9976998 C35.0519835,62.0964758 33.8524645,61.626955 33.7645538,61.5891375 L30.684499,60.1442387 C30.195084,59.8878868 29.8904378,59.7271255 29.7705605,59.6619556 C29.1798465,59.34082 28.962234,58.6033138 29.2845093,58.0146891 C29.6067845,57.4260642 30.3469085,57.2092215 30.9376225,57.5303569 C31.5036995,57.838099 32.0901055,58.1381032 32.690561,58.4288397 L35.6549235,59.7469342 C35.7178573,59.7726505 38.805909,60.9280903 38.8683885,60.9493811 L42.486846,62.0428091 C42.563244,62.0627458 43.520094,62.2726207 45.3573965,62.6724328 C46.2758583,62.8282629 47.0840855,62.9114246 47.739007,62.9114246 C48.3222293,62.9114246 49.0274493,62.8446472 49.8240148,62.7186528 C52.5754125,62.0856116 53.9708033,61.7634157 54.0101865,61.752065 L56.564689,60.9442341 L59.573909,59.8160545 C61.95057,58.7510394 63.4072285,58.0769116 63.943884,57.7936712 L64.2866305,57.610619 C64.343372,57.5799509 64.3999183,57.5492039 64.4562625,57.51838 Z" id="Path" fill="#CABCB4" fill-rule="nonzero"></path>
        <path d="M46.885344,43.6844439 C47.8880595,45.090444 49.7308875,46.0773477 51.8989208,46.1990209 L51.8989208,46.8073862 C51.8989208,50.6468482 50.7607033,53.7562714 47.6848063,53.7562714 C44.64956,53.7562714 43.4977923,50.7009251 43.470692,46.9155401 C43.470692,46.3747708 43.470692,46.0458029 43.470692,45.9286363 C44.9341143,45.5365785 46.1400828,44.7389439 46.885344,43.6844439 Z" id="Path" fill="#F23C57" fill-rule="nonzero"></path>
        <path d="M34.9609983,39.8510278 C35.6170285,39.7017956 36.270252,40.1107558 36.4200138,40.7644658 C36.7971668,42.4107383 37.729436,43.8209474 39.0211698,44.6728535 C41.5888978,46.3662851 44.882324,45.3493015 46.4210183,42.3125645 C46.7243048,41.7140047 47.4571178,41.4737684 48.057802,41.7759822 C48.6584865,42.0781957 48.8995753,42.8084171 48.5962888,43.406977 C46.4204265,47.7012159 41.5011325,49.2202545 37.6762575,46.6977268 C35.8447725,45.4898517 34.5567008,43.5414332 34.044318,41.304883 C33.8945563,40.6511732 34.304968,40.0002598 34.9609983,39.8510278 Z" id="Path" fill="#000000" fill-rule="nonzero"></path>
        <path d="M58.312739,40.7644658 C58.4625008,40.1107558 59.1157243,39.7017956 59.7717545,39.8510278 C60.4277848,40.0002598 60.8381965,40.6511732 60.6884348,41.304883 C60.176052,43.5414332 58.8879803,45.4898517 57.0564953,46.6977268 C53.2316203,49.2202545 48.3123263,47.7012159 46.136464,43.406977 C45.8331778,42.8084171 46.0742665,42.0781957 46.6749508,41.7759822 C47.2756353,41.4737684 48.0084483,41.7140047 48.3117345,42.3125645 C49.850429,45.3493015 53.1438553,46.3662851 55.711583,44.6728535 C57.0033168,43.8209474 57.935586,42.4107383 58.312739,40.7644658 Z" id="Path-Copy" fill="#000000" fill-rule="nonzero"></path>
        <path d="M47.468003,43.7250015 C49.3379315,43.7250015 51.9531215,40.9941167 51.9531215,38.6823283 C51.9531215,36.3705396 50.3270968,36.1271934 47.400252,36.1271934 C44.4734073,36.1271934 42.8473823,36.3705396 42.8473823,38.6823283 C42.8473823,40.9941167 45.5980745,43.7250015 47.468003,43.7250015 Z" id="Oval" fill="#000000" fill-rule="nonzero"></path>
        <path d="M38.701019,30.4626353 C36.8310905,30.962847 35.7877245,33.125924 36.0316283,34.0317124 C36.275532,34.9375011 38.0641593,35.5458663 39.9340878,35.0456549 C41.8040165,34.5454432 43.023535,33.0177702 42.8067318,32.2201354 C42.5899285,31.4089815 40.5709475,29.9624239 38.701019,30.4626353 Z" id="Oval-Copy-3" fill="#000000" fill-rule="nonzero"></path>
        <path d="M56.7227945,30.4626353 C58.592723,30.962847 59.636089,33.125924 59.3921852,34.0317124 C59.1482815,34.9375011 57.3596542,35.5458663 55.4897255,35.0456549 C53.619797,34.5454432 52.4002782,33.0177702 52.6170817,32.2201354 C52.833885,31.4225009 54.8393155,29.9624239 56.7227945,30.4626353 Z" id="Oval-Copy-4" fill="#000000" fill-rule="nonzero"></path>
        <path d="M51.925176,16.3090342 C52.8606485,15.2995095 53.7683583,14.7222917 54.7250875,14.7997248 C55.7860473,14.8771785 56.6728375,15.7638522 57.5493765,17.2256689 C57.842431,17.7415165 58.055606,18.1375372 58.1889015,18.4137309 C58.2972335,18.6430962 58.3583273,18.772822 58.3721823,18.8029084 C58.6528303,19.4123342 58.3845498,20.133077 57.772961,20.4127325 C57.161372,20.6923879 56.438071,20.4250562 56.157423,19.8156303 L55.5096673,18.5588251 C55.2122455,18.0543638 54.5848463,17.3156962 54.5447338,17.2816756 C54.1999508,17.5123321 53.9414935,17.7180916 53.769362,17.8989543 L53.0184675,18.7995458 C52.6116263,19.3336395 51.847311,19.4379644 51.3113218,19.0325621 C50.7753325,18.6271598 50.6706373,17.8655479 51.0774785,17.3314543 L51.925176,16.3090342 Z" id="Path-Copy-2" fill="#CABCB4" fill-rule="nonzero"></path>
        <path d="M39.0857368,32.8474823 C39.6149,32.3195282 39.7864885,31.6347423 39.4689905,31.31797 C39.1514925,31.0011978 38.4651378,31.1723942 37.935974,31.7003478 C37.4068108,32.2283019 37.2352223,32.9130876 37.5527203,33.2298598 C37.8702183,33.5466321 38.556573,33.3754357 39.0857368,32.8474823 Z" id="Oval-Copy-7" fill="#FFFFFF" fill-rule="nonzero"></path>
        <path d="M55.3486545,32.954987 C55.9763015,32.5483632 56.2868768,31.9141422 56.0423438,31.5384146 C55.7978105,31.1626872 55.0907685,31.1877336 54.463121,31.5943569 C53.835474,32.000981 53.5248988,32.6352021 53.7694318,33.0109294 C54.0139653,33.3866568 54.721007,33.3616106 55.3486545,32.954987 Z" id="Oval-Copy-8" fill="#FFFFFF" fill-rule="nonzero"></path>
        <path d="M91.9444445,5.26258992 L110.833333,5.26258992 C112.674283,5.26258992 114.166667,6.75014437 114.166667,8.58513578 L114.166667,25.2054344 C114.166667,25.8170983 113.669205,26.4142395 113.055556,26.4142395 L91.9444445,26.4142395 C91.3307948,26.4142395 90.8333333,25.8170983 90.8333333,25.2054344 L90.8333333,6.37010522 C90.8333333,5.75844141 91.3307948,5.26258992 91.9444445,5.26258992 Z" id="Rectangle" fill="#FFCA3D" fill-rule="nonzero"></path>
        <path d="M103.2142,7.97411003 C107.632602,7.97411003 109.969538,10.9765406 110.178,14.3005289 C110.380517,17.5297332 110.201469,22.6688803 109.0483,26.4142395 L97.5363535,26.4142395 C96.9669115,23.4651448 96.2977453,19.3968245 96.3087163,16.4487992 C95.6055153,16.0427077 95.1394328,15.7437666 94.910469,15.5519759 C94.0706783,14.8485281 93.6948253,14.2919279 93.7565138,13.9735572 C94.0114313,12.6579448 95.058614,12.4439806 96.5508963,12.6122341 C97.3323058,10.02525 99.5632098,7.97411003 103.2142,7.97411003 Z" id="Path" fill="#4CBFEA" fill-rule="nonzero"></path>
        <path d="M93.75,14.2803021 C94.7387305,14.2869003 100.665601,16.0421213 100.779908,16.0623312 C101.710781,16.2269147 102.358415,16.0406637 102.722809,15.5035784 L102.727941,15.8398107 C102.634666,22.8737477 102.587527,26.3985574 102.586524,26.4142395 L97.333057,26.4142395 C96.5029448,23.4278615 96.1931475,19.365188 96.204203,16.3958621 L96.1288678,16.3519496 C94.9332718,15.5938989 94.3316638,15.2114978 94.3240435,15.2047464 L94.2901418,15.1742545 C93.9997255,14.9090217 93.7985318,14.6182939 93.75,14.2803021 Z" id="Path" fill="#FFFFFF" fill-rule="nonzero"></path>
        <path d="M104.691488,12.1608256 C105.876093,12.443808 106.596703,13.5928637 106.301507,14.7272315 C106.249909,14.9255078 106.039995,15.0462441 105.83265,14.9969034 C105.625305,14.9475627 105.499047,14.7468294 105.550644,14.5485531 C105.742783,13.8102114 105.273946,13.0626231 104.503958,12.8786861 C103.734236,12.6948126 102.954477,13.1437115 102.762404,13.8817999 C102.710806,14.0800763 102.500892,14.2008125 102.293547,14.1514718 C102.086202,14.102131 101.959944,13.9013978 102.011541,13.7031214 C102.306804,12.5685003 103.506617,11.8777806 104.691488,12.1608256 Z" id="Path" fill="#000000" fill-rule="nonzero"></path>
        <path d="M102.365249,14.9966072 C102.574812,15.0062043 102.737019,15.1861129 102.727547,15.3984443 C102.688118,16.2823197 101.977686,16.6059177 100.863027,16.4063951 C100.775397,16.3907082 100.39878,16.2862544 99.7331758,16.0930336 L98.4516848,15.6415518 C96.8548668,15.0830675 95.593332,14.7499239 94.0835805,14.562086 C93.875367,14.5361809 93.7273033,14.3441607 93.7528708,14.133197 C93.778438,13.9222333 93.967955,13.7722137 94.1761683,13.7981189 C95.681789,13.9854428 96.9471038,14.3108231 98.4958953,14.8433357 L99.9405645,15.3515853 C100.555982,15.5337867 100.907523,15.6327335 100.995189,15.6484258 C101.697446,15.77413 101.940227,15.6770468 101.966787,15.3910546 C102.092719,15.1216917 102.22554,14.9902092 102.365249,14.9966072 Z" id="Path" fill="#1683AC" fill-rule="nonzero"></path>
        <path d="M105.342285,17.6077403 C105.449023,17.440419 105.661516,17.3862365 105.831012,17.4771775 L105.862251,17.4959374 L107.653171,18.6918577 C107.748825,18.7557323 107.810292,18.8601897 107.821629,18.975104 L107.82353,19.0137547 L107.82353,23.8401474 C107.82353,24.0842782 107.603986,24.2665628 107.370484,24.2163065 C104.918229,23.6885105 103.69853,21.5111838 103.69853,17.8178344 C103.69853,17.6055406 103.866738,17.4333981 104.074233,17.4333981 C104.281728,17.4333981 104.449937,17.6055406 104.449937,17.8178344 C104.449937,20.9087224 105.316738,22.7106219 107.040407,23.3266985 L107.071928,23.3375379 L107.071928,19.2215938 L105.451561,18.1397314 C105.288021,18.030525 105.235064,17.8131177 105.323949,17.6397028 L105.342285,17.6077403 Z" id="Path-11" fill="#1683AC" fill-rule="nonzero"></path>
        <path d="M108.990216,13.783927 C108.786461,13.8348866 108.580611,13.7084298 108.530439,13.5014778 C108.471102,13.2567271 108.387979,13.0082108 108.282177,12.7603458 C108.048814,12.2136439 107.709765,11.6803939 107.28247,11.1972642 C106.855196,10.7141701 106.369777,10.3152109 105.860217,10.0218583 C105.629222,9.88887579 105.395234,9.77878492 105.162451,9.69316556 C104.965148,9.6205959 104.863122,9.39931123 104.934571,9.19891243 C105.00602,8.99851365 105.223887,8.89488767 105.42119,8.96745733 C105.694614,9.06802466 105.967329,9.19633622 106.234928,9.35039253 C106.816569,9.68524149 107.366171,10.1369525 107.847779,10.6814707 C108.32934,11.2259638 108.713115,11.8295599 108.979376,12.4533316 C109.101862,12.7402812 109.198668,13.0297058 109.268303,13.3169365 C109.318475,13.5238886 109.193972,13.7329673 108.990216,13.783927 Z" id="Path" fill="#FFFFFF" fill-rule="nonzero"></path>
        <path d="M91.9444445,27.9748202 L113.055556,27.9748202 C113.669205,27.9748202 114.166667,28.4706715 114.166667,29.0823353 L114.166667,47.9176647 C114.166667,48.5293285 113.669205,49.0251798 113.055556,49.0251798 L91.9444445,49.0251798 C91.3307948,49.0251798 90.8333333,48.5293285 90.8333333,47.9176647 L90.8333333,29.0823353 C90.8333333,28.4706715 91.3307948,27.9748202 91.9444445,27.9748202 Z" id="Rectangle-Copy-5" fill="#FE5BA3" fill-rule="nonzero"></path>
        <path d="M91.9444445,50.6870504 L113.055556,50.6870504 C113.669205,50.6870504 114.166667,51.1829017 114.166667,51.7945656 L114.166667,68.4148643 C114.166667,70.2498556 112.674283,71.7374101 110.833333,71.7374101 L91.9444445,71.7374101 C91.3307948,71.7374101 90.8333333,71.2415585 90.8333333,70.6298949 L90.8333333,51.7945656 C90.8333333,51.1829017 91.3307948,50.6870504 91.9444445,50.6870504 Z" id="Rectangle-Copy-6" fill="#4DC17B" fill-rule="nonzero"></path>
        <path d="M102.25,52.3300971 C104.064924,52.3300971 106.494853,54.4941995 107.590007,57.0290814 C108.926565,60.1227278 109.75,64.5446101 109.75,65.4829234 C109.75,65.8797612 109.465807,66.2975642 109.0014,66.7051419 L108.275763,67.2454656 C108.734593,68.2433846 108.946429,69.4043108 108.946429,70.6431768 C108.946429,70.9457113 108.926633,71.4749893 108.888273,71.7669903 L95.573462,71.7669903 C95.5351018,71.4749893 95.515306,70.9457113 95.515306,70.6431768 C95.515306,69.4347129 95.7168725,68.3004102 96.152671,67.3191466 L95.9808008,67.2012549 C95.2383448,66.6744278 94.75,66.0858807 94.75,65.4829234 C94.75,64.4035757 95.566779,60.0431632 96.8797585,57.0076953 C97.9738345,54.4783084 100.435077,52.3300971 102.25,52.3300971 Z" id="Path" fill="#112F40" fill-rule="nonzero"></path>
        <path d="M102.261954,61.3438098 C102.88843,61.3438098 103.307995,61.2569433 103.656078,61.1556076 L104.289433,60.9572583 C104.533466,60.8877973 104.788283,60.8385647 105.118273,60.8439809 C106.72513,60.8703535 106.90094,64.5129651 106.889183,66.1986132 C106.880102,67.5004661 103.47449,68.664433 102.25,68.664433 C101.02551,68.664433 97.4285715,67.5004661 97.4285715,66.1425046 L97.4313878,65.7434914 C97.4548043,64.2006391 97.663843,60.8270556 99.4181933,60.8270556 C99.638903,60.8270556 99.8337898,60.8619881 100.028218,60.9136885 L100.872784,61.1693216 C101.231515,61.2652115 101.666038,61.3438098 102.261954,61.3438098 Z" id="Mask" fill="#000000" fill-rule="nonzero"></path>
        <path d="M99.4181933,60.8270556 C99.638903,60.8270556 99.8337898,60.8619881 100.028218,60.9136885 L100.872784,61.1693216 C101.231515,61.2652115 101.666038,61.3438098 102.261954,61.3438098 C102.88843,61.3438098 103.307995,61.2569433 103.656078,61.1556076 L104.289433,60.9572583 C104.533466,60.8877973 104.788283,60.8385647 105.118273,60.8439809 C105.478219,60.8498884 105.766356,61.0372536 105.996662,61.343432 L105.933366,62.8865975 L105.655612,64.7457443 C104.975579,66.8910871 103.843542,67.5004661 102.269133,67.5004661 C100.694723,67.5004661 99.5723178,66.8910871 98.8922845,64.7457443 C98.8050003,64.2669887 98.7205035,63.6002265 98.638794,62.7454582 C98.6008363,62.3483809 98.5432378,61.2050488 98.5429283,61.1876999 C98.7804968,60.9609601 99.0686768,60.8270556 99.4181933,60.8270556 Z" id="Path" fill="#FFFFFF" fill-rule="nonzero"></path>
        <path d="M102.25,66.5692924 C103.348934,66.5692924 104.239796,65.4441246 104.239796,64.7845433 C104.239796,63.6702853 103.348934,63.4653808 102.25,63.4653808 C101.151066,63.4653808 100.260204,63.6702853 100.260204,64.7845433 C100.260204,65.4441246 101.151066,66.5692924 102.25,66.5692924 Z" id="Oval" fill="#0D222E" fill-rule="nonzero"></path>
        <path d="M106.970793,67.8435271 C107.138274,67.750305 107.349413,67.8108706 107.442385,67.9788041 C107.535356,68.1467376 107.474953,68.3584457 107.307471,68.4516678 C106.903146,68.6767189 106.172738,69.0035268 105.116247,69.4320909 C105.016337,69.4679318 104.794238,69.5422161 104.44995,69.6549438 C103.576411,69.9255996 102.778547,70.0861309 102.251361,70.0861309 C101.929201,70.0861309 101.194351,69.9426061 100.046812,69.6555566 C99.1225755,69.3244815 98.6353858,69.1485422 98.585242,69.127739 C97.848853,68.7912533 97.379051,68.5668758 97.1758355,68.4546068 C97.00806,68.3619172 96.946989,68.1504017 97.0394295,67.9821739 C97.1318698,67.8139461 97.3428163,67.7527102 97.5105918,67.8454 C97.8941468,68.0573 98.3108265,68.25649 98.7360393,68.4368654 L100.819361,69.1536913 C101.397379,69.3047451 101.902378,69.3905734 102.251361,69.3905734 C102.600083,69.3905734 103.103441,69.304695 103.679035,69.1535076 L104.691113,68.8445846 C105.181443,68.6754929 106.875458,67.8965913 106.970793,67.8435271 Z" id="Path" fill="#000000" fill-rule="nonzero"></path>
        <path d="M102.5,30.7446044 C106.745647,30.7446044 110.189142,34.0574222 110.189142,38.14695 C110.189142,39.9020569 109.555397,41.5155537 108.496201,42.7814621 C109.728237,44.1331949 110.277778,45.9869998 110.277778,48.0382003 C110.277778,48.3729151 110.255619,48.7033388 110.211301,49.0251798 L94.788699,49.0251798 C94.7443813,48.7033388 94.7222223,48.3729151 94.7222223,48.0382003 C94.7222223,45.9869998 95.2717633,44.1331949 96.5037988,42.7814621 C95.4446028,41.5155537 94.8108577,39.9020569 94.8108577,38.14695 C94.8108577,34.0574222 98.2543527,30.7446044 102.5,30.7446044 Z" id="Path" fill="#FFE934" fill-rule="nonzero"></path>
        <path d="M107.08304,43.0985663 C107.263989,42.9842186 107.503676,43.0377353 107.618395,43.2180995 C107.733114,43.3984634 107.679423,43.6373747 107.498474,43.7517225 C107.057364,44.0304734 106.579716,44.273003 106.073054,44.4755372 C104.968595,44.9115697 103.752383,45.1421002 102.5,45.1421002 C101.247617,45.1421002 100.031405,44.9115697 98.9265333,44.4753737 C98.4237678,44.2762205 97.9495623,44.0348505 97.5015263,43.7517225 C97.3205768,43.6373747 97.2668863,43.3984634 97.3816053,43.2180995 C97.4963243,43.0377353 97.736011,42.9842186 97.9169605,43.0985663 C98.3242775,43.3559626 98.7553408,43.5753735 99.2126545,43.7565229 C100.226009,44.156588 101.345271,44.3687419 102.5,44.3687419 C103.65473,44.3687419 104.773991,44.156588 105.785799,43.7571371 C106.247296,43.5726538 106.682532,43.3516599 107.08304,43.0985663 Z" id="Path" fill="#FF9000" fill-rule="nonzero"></path>
        <ellipse id="Oval" fill="#000000" fill-rule="nonzero" cx="99.4420703" cy="37.6534603" rx="1.17442228" ry="1.33027662"></ellipse>
        <ellipse id="Oval-Copy-3" fill="#FFFFFF" fill-rule="nonzero" cx="99.1761633" cy="37.3316192" rx="1" ry="1"></ellipse>
        <ellipse id="Oval-Copy-2" fill="#000000" fill-rule="nonzero" cx="105.55793" cy="37.6534603" rx="1.17442228" ry="1.33027662"></ellipse>
        <path d="M102.544318,38.2542305 C103.204653,38.2542305 103.510446,38.5202856 103.763058,38.7949235 L103.794081,38.8292532 L103.896012,38.9451161 L103.927034,38.9794459 L103.958056,39.0094843 C104.144191,39.2111713 104.343622,39.3699462 104.698164,39.3699462 C105.863723,39.3699462 106.413264,39.7175347 106.426559,40.421294 L106.426559,40.4427501 L106.426559,40.4770797 C106.382241,41.6399989 104.281577,42.3137198 102.579772,42.3308846 L102.526591,42.3308846 L102.504432,42.3308846 L102.482273,42.3308846 C100.771605,42.3308846 98.6266223,41.6528727 98.5823045,40.4770797 L98.5823045,40.4427501 C98.5823045,39.721826 99.1362773,39.3699462 100.3107,39.3699462 C100.647515,39.3699462 100.842514,39.224045 101.019785,39.0395228 L101.050807,39.0094843 L101.08183,38.9794459 L101.112852,38.9451161 L101.214783,38.8292532 C101.219215,38.8249619 101.223647,38.8163795 101.228079,38.8120885 L101.259101,38.7777587 C101.507281,38.5117033 101.813074,38.2542305 102.460114,38.2542305 C102.473409,38.2542305 102.491137,38.2542305 102.504432,38.2542305 C102.513295,38.2542305 102.531023,38.2542305 102.544318,38.2542305 Z" id="Path" fill="#FF4B00" fill-rule="nonzero"></path>
        <path d="M105.067531,40.1325146 C105.263202,40.0455276 105.492571,40.1331202 105.57984,40.3281582 C105.66711,40.5231962 105.579233,40.7518226 105.383562,40.8388097 C104.621871,41.1774248 103.668289,41.344375 102.522159,41.344375 C101.376029,41.344375 100.422447,41.1774248 99.6607563,40.8388097 C99.465085,40.7518226 99.377208,40.5231962 99.4644775,40.3281582 C99.551747,40.1331202 99.7811158,40.0455276 99.9767873,40.1325146 C100.629104,40.4225066 101.477361,40.5710167 102.522159,40.5710167 C103.566958,40.5710167 104.415214,40.4225066 105.067531,40.1325146 Z" id="Path" fill="#921000" fill-rule="nonzero"></path>
        <ellipse id="Oval-Copy-4" fill="#FFFFFF" fill-rule="nonzero" cx="105.247705" cy="37.3316192" rx="1" ry="1"></ellipse>
    </g>
</svg>