<?xml version="1.0" encoding="UTF-8"?>
<svg width="212px" height="80px" viewBox="0 0 212 80" version="1.1" xmlns="http://www.w3.org/2000/svg" xmlns:xlink="http://www.w3.org/1999/xlink">
    <title>record_td_audio</title>
    <g id="record_td_audio" stroke="none" stroke-width="1" fill="none" fill-rule="evenodd">
        <path d="M43.7701975,66.2857143 C47.6576358,66.2857143 51.3477972,65.4403128 54.6671733,63.9231737 C63.7325049,59.7798145 70.032316,50.6262682 70.032316,40 C70.032316,25.4828009 58.2743651,13.7142857 43.7701975,13.7142857 C29.26603,13.7142857 17.508079,25.4828009 17.508079,40 C17.508079,54.5171992 29.26603,66.2857143 43.7701975,66.2857143 Z" id="Oval" fill="#37A8FF" fill-rule="nonzero"></path>
        <path d="M125.220826,25.5238095 C126.482058,25.5238095 127.504488,26.5471587 127.504488,27.8095238 L127.504488,52.952381 C127.504488,54.2147459 126.482058,55.2380952 125.220826,55.2380952 C123.959594,55.2380952 122.937163,54.2147459 122.937163,52.952381 L122.937163,27.8095238 C122.937163,26.5471587 123.959594,25.5238095 125.220826,25.5238095 Z" id="Path" fill="#37A8FF" fill-rule="nonzero"></path>
        <path d="M97.8168761,26.6666667 C99.0781079,26.6666667 100.100539,27.6900158 100.100539,28.952381 L100.100539,51.8095238 C100.100539,53.0718888 99.0781079,54.0952381 97.8168761,54.0952381 C96.5556444,54.0952381 95.5332136,53.0718888 95.5332136,51.8095238 L95.5332136,28.952381 C95.5332136,27.6900158 96.5556444,26.6666667 97.8168761,26.6666667 Z" id="Path" fill="#37A8FF" fill-rule="nonzero"></path>
        <path d="M170.894075,26.6666667 C172.155307,26.6666667 173.177738,27.6900158 173.177738,28.952381 L173.177738,51.8095238 C173.177738,53.0718888 172.155307,54.0952381 170.894075,54.0952381 C169.632844,54.0952381 168.610413,53.0718888 168.610413,51.8095238 L168.610413,28.952381 C168.610413,27.6900158 169.632844,26.6666667 170.894075,26.6666667 Z" id="Path" fill="#37A8FF" fill-rule="nonzero"></path>
        <path d="M106.951526,28.952381 C108.212758,28.952381 109.235189,29.9757301 109.235189,31.2380952 L109.235189,49.5238095 C109.235189,50.7861745 108.212758,51.8095238 106.951526,51.8095238 C105.690294,51.8095238 104.667864,50.7861745 104.667864,49.5238095 L104.667864,31.2380952 C104.667864,29.9757301 105.690294,28.952381 106.951526,28.952381 Z" id="Path" fill="#37A8FF" fill-rule="nonzero"></path>
        <path d="M180.028725,28.952381 C181.289957,28.952381 182.312388,29.9757301 182.312388,31.2380952 L182.312388,49.5238095 C182.312388,50.7861745 181.289957,51.8095238 180.028725,51.8095238 C178.767494,51.8095238 177.745063,50.7861745 177.745063,49.5238095 L177.745063,31.2380952 C177.745063,29.9757301 178.767494,28.952381 180.028725,28.952381 Z" id="Path" fill="#37A8FF" fill-rule="nonzero"></path>
        <path d="M134.355476,28.952381 C135.616708,28.952381 136.639138,29.9757301 136.639138,31.2380952 L136.639138,49.5238095 C136.639138,50.7861745 135.616708,51.8095238 134.355476,51.8095238 C133.094244,51.8095238 132.071813,50.7861745 132.071813,49.5238095 L132.071813,31.2380952 C132.071813,29.9757301 133.094244,28.952381 134.355476,28.952381 Z" id="Path" fill="#37A8FF" fill-rule="nonzero"></path>
        <path d="M152.624776,30.0952381 C153.886007,30.0952381 154.908438,31.1185872 154.908438,32.3809524 L154.908438,48.3809524 C154.908438,49.6433173 153.886007,50.6666667 152.624776,50.6666667 C151.363544,50.6666667 150.341113,49.6433173 150.341113,48.3809524 L150.341113,32.3809524 C150.341113,31.1185872 151.363544,30.0952381 152.624776,30.0952381 Z" id="Path" fill="#37A8FF" fill-rule="nonzero"></path>
        <path d="M88.6822262,32.3809524 C89.943458,32.3809524 90.9658887,33.4043015 90.9658887,34.6666667 L90.9658887,46.0952381 C90.9658887,47.357603 89.943458,48.3809524 88.6822262,48.3809524 C87.4209944,48.3809524 86.3985637,47.357603 86.3985637,46.0952381 L86.3985637,34.6666667 C86.3985637,33.4043015 87.4209944,32.3809524 88.6822262,32.3809524 Z" id="Path" fill="#37A8FF" fill-rule="nonzero"></path>
        <path d="M161.759425,32.3809524 C163.020657,32.3809524 164.043088,33.4043015 164.043088,34.6666667 L164.043088,46.0952381 C164.043088,47.357603 163.020657,48.3809524 161.759425,48.3809524 C160.498194,48.3809524 159.475763,47.357603 159.475763,46.0952381 L159.475763,34.6666667 C159.475763,33.4043015 160.498194,32.3809524 161.759425,32.3809524 Z" id="Path" fill="#37A8FF" fill-rule="nonzero"></path>
        <path d="M116.086176,32.3809524 C117.347408,32.3809524 118.369838,33.4043015 118.369838,34.6666667 L118.369838,46.0952381 C118.369838,47.357603 117.347408,48.3809524 116.086176,48.3809524 C114.824944,48.3809524 113.802513,47.357603 113.802513,46.0952381 L113.802513,34.6666667 C113.802513,33.4043015 114.824944,32.3809524 116.086176,32.3809524 Z" id="Path" fill="#37A8FF" fill-rule="nonzero"></path>
        <path d="M189.163375,32.3809524 C190.424607,32.3809524 191.447038,33.4043015 191.447038,34.6666667 L191.447038,46.0952381 C191.447038,47.357603 190.424607,48.3809524 189.163375,48.3809524 C187.902143,48.3809524 186.879713,47.357603 186.879713,46.0952381 L186.879713,34.6666667 C186.879713,33.4043015 187.902143,32.3809524 189.163375,32.3809524 Z" id="Path" fill="#37A8FF" fill-rule="nonzero"></path>
        <path d="M143.490126,32.3809524 C144.751357,32.3809524 145.773788,33.4043015 145.773788,34.6666667 L145.773788,46.0952381 C145.773788,47.357603 144.751357,48.3809524 143.490126,48.3809524 C142.228894,48.3809524 141.206463,47.357603 141.206463,46.0952381 L141.206463,34.6666667 C141.206463,33.4043015 142.228894,32.3809524 143.490126,32.3809524 Z" id="Path" fill="#37A8FF" fill-rule="nonzero"></path>
        <path d="M43.6031289,49.3105246 L43.937266,49.3105246 C44.5887999,49.3105246 45.116973,49.8391722 45.116973,50.4912914 L45.116973,52.9144712 C45.116973,53.5665909 44.5887999,54.0952381 43.937266,54.0952381 L43.6031289,54.0952381 C42.9515951,54.0952381 42.423422,53.5665909 42.423422,52.9144712 L42.423422,50.4912914 C42.423422,49.8391722 42.9515951,49.3105246 43.6031289,49.3105246 Z" id="Rectangle" fill="#FFFFFF" fill-rule="nonzero"></path>
        <path d="M43.8481579,28.952381 C46.5276427,28.952381 48.6997943,31.1264842 48.6997943,33.8083764 L48.6997943,41.4774827 C48.6997943,44.1593749 46.5276427,46.3334781 43.8481579,46.3334781 C41.1686732,46.3334781 38.9965216,44.1593749 38.9965216,41.4774827 L38.9965216,33.8083764 C38.9965216,31.1264842 41.1686732,28.952381 43.8481579,28.952381 Z" id="Rectangle" fill="#FFFFFF" fill-rule="nonzero"></path>
        <path d="M35.016158,40.687141 C35.6155766,40.687141 36.1015014,41.1735025 36.1015014,41.7734594 C36.1015014,45.5539211 39.5589126,48.7799303 43.7701975,48.7799303 C48.0292505,48.7799303 51.4388937,45.7047695 51.4388937,41.9709718 C51.4388937,41.3710149 51.9248182,40.8846533 52.524237,40.8846533 C53.1236558,40.8846533 53.6095803,41.3710149 53.6095803,41.9709718 C53.6095803,46.9580564 49.1805897,50.9525672 43.7701975,50.9525672 C38.3927905,50.9525672 33.9308146,46.7892282 33.9308146,41.7734594 C33.9308146,41.1735025 34.4167394,40.687141 35.016158,40.687141 Z" id="Path" fill="#FFFFFF" fill-rule="nonzero"></path>
    </g>
</svg>