<?xml version="1.0" encoding="UTF-8"?>
<svg width="24px" height="24px" viewBox="0 0 24 24" version="1.1" xmlns="http://www.w3.org/2000/svg" xmlns:xlink="http://www.w3.org/1999/xlink">
    <title>Icon / Menu / rating_refund</title>
    <g id="Icon-/-Menu-/-rating_refund" stroke="none" stroke-width="1" fill="none" fill-rule="evenodd">
        <path d="M9.58495703,2.34314741 C14.845204,0.914046898 20.2520851,4.07916838 21.661564,9.41264412 C23.0710429,14.7461199 19.9493787,20.2282711 14.6891317,21.6573716 C9.70832403,23.0105542 4.55852362,20.241996 2.84766326,15.3548697 L2.79687536,15.2061286 C2.7724639,15.132795 2.65678419,14.7396157 2.52176727,14.2756688 L2.02361181,12.5403036 C1.92527607,12.1682007 2.1430666,11.785725 2.51006058,11.6860203 C2.87705455,11.5863156 3.25427881,11.807138 3.35261455,12.179241 L3.59432993,13.0275538 C3.80113943,13.7451404 4.06828557,14.6632038 4.10050903,14.760005 C5.52633258,19.0432668 10.0041242,21.485941 14.3330265,20.3098676 C18.8592855,19.0801764 21.5453687,14.3629766 20.3325613,9.77370673 C19.1197538,5.18443691 14.4673212,2.46096029 9.94106224,3.69065143 C7.52370963,4.34739623 5.56035445,6.02376558 4.49357103,8.2653952 C4.32845825,8.61234632 3.91721015,8.75789206 3.57502268,8.59048072 C3.23283521,8.42306937 3.08928781,8.00609621 3.25440059,7.65914509 C4.49336656,5.05570865 6.77676829,3.10607433 9.58495703,2.34314741 Z" id="Path" fill="#FFFFFF" fill-rule="nonzero"></path>
        <path d="M2.49794681,3.90217796 C2.49794681,3.51694863 2.80594913,3.20465855 3.18588925,3.20465855 C3.56582936,3.20465855 3.87383169,3.51694863 3.87383169,3.90217796 L3.87360558,7.52173176 L6.91980245,7.41555441 C7.2814361,7.4029357 7.58746725,7.67568116 7.62708143,8.03426422 L7.63099908,8.08867052 C7.64406681,8.47367193 7.34684021,8.79651819 6.96712488,8.80976784 L3.24117729,8.93977968 C2.86111038,8.95304159 2.53984537,8.66451926 2.50172057,8.28653895 L2.49800979,8.22097241 L2.49794681,3.90217796 Z" id="Path" fill="#FFFFFF" fill-rule="nonzero"></path>
        <path d="M12.3540269,17.3251877 C12.6431336,17.3251877 12.9561718,17.1659567 12.9561718,16.7838024 L12.9561718,16.1901404 C14.6843872,16.0054325 15.7076642,14.9990928 15.7076642,13.5341679 C15.7076642,12.2730587 14.9431377,11.50875 13.3562633,11.1648111 L12.0520711,10.8718262 C11.2361478,10.6934875 10.8378231,10.3240717 10.8378231,9.78268638 C10.8378231,9.13302405 11.4031872,8.66170039 12.289781,8.66170039 C13.0093353,8.66170039 13.5104536,8.90373146 14.0693931,9.5215476 C14.3520752,9.81453257 14.5705113,9.92280963 14.8660426,9.92280963 C15.2258197,9.92280963 15.5020772,9.67440933 15.5020772,9.30499349 C15.5020772,8.94831613 15.2900657,8.55979258 14.9302885,8.20948446 C14.4548686,7.76363776 13.7920916,7.47065278 12.9890176,7.36874497 L12.9890176,6.69989325 C12.9890176,6.32410818 12.6816811,6.16487722 12.3861499,6.16487722 C12.0970432,6.16487722 11.7838443,6.31773894 11.7838443,6.69989325 L11.7838443,7.34963725 C10.1198749,7.50249898 9.11603231,8.48973095 9.11603231,9.90370191 C9.11603231,11.1393342 9.88055881,11.960966 11.3453659,12.2857971 L12.6495582,12.5851513 C13.6003978,12.8080747 13.992298,13.1392751 13.992298,13.6997681 C13.992298,14.4258613 13.4205093,14.8844465 12.3989991,14.8844465 C11.6344726,14.8844465 10.9984379,14.5978307 10.4202246,13.9800146 C10.0925704,13.6551834 9.91268177,13.5851218 9.66854726,13.5851218 C9.27664712,13.5851218 8.98111587,13.8335221 8.98111587,14.2602611 C8.98111587,14.6360462 9.19955201,15.0245697 9.59145215,15.3621394 C10.1054195,15.8270938 10.852439,16.1137095 11.7454573,16.1965096 L11.7454573,16.7838024 C11.7454573,17.1659567 12.0584957,17.3251877 12.3540269,17.3251877 Z" id="Path" fill="#FFFFFF" fill-rule="nonzero"></path>
    </g>
</svg>