<?xml version="1.0" encoding="UTF-8"?>
<svg width="24px" height="24px" viewBox="0 0 24 24" version="1.1" xmlns="http://www.w3.org/2000/svg" xmlns:xlink="http://www.w3.org/1999/xlink">
    <title>Icon / Menu / rating_gifts</title>
    <g id="Icon-/-Menu-/-rating_gifts" stroke="none" stroke-width="1" fill="none" fill-rule="evenodd">
        <path d="M9.49180328,1 C11.2844653,1 12.6018066,2.18644541 12.6018066,3.65 C12.6018066,5.11355459 11.2844653,6.3 9.49180328,6.3 C7.6991413,6.3 6.24590164,5.11355459 6.24590164,3.65 C6.24590164,2.18644541 7.6991413,1 9.49180328,1 Z M9.49180328,2.2 C8.31430075,2.2 7.44590164,2.90897331 7.44590164,3.65 C7.44590164,4.39102669 8.31430075,5.1 9.49180328,5.1 C10.6309547,5.1 11.4018066,4.43203043 11.4018066,3.65 C11.4018066,2.86796957 10.6309547,2.2 9.49180328,2.2 Z" id="Oval" fill="#FFFFFF" fill-rule="nonzero"></path>
        <path d="M14.5081967,1 C16.3008587,1 17.7540984,2.18644541 17.7540984,3.65 C17.7540984,5.11355459 16.3008587,6.3 14.5081967,6.3 C12.7155347,6.3 11.4638672,5.11355459 11.4638672,3.65 C11.4638672,2.18644541 12.7155347,1 14.5081967,1 Z M14.5081967,2.2 C13.3883731,2.2 12.6638672,2.84700401 12.6638672,3.65 C12.6638672,4.45299599 13.3883731,5.1 14.5081967,5.1 C15.6856993,5.1 16.5540984,4.39102669 16.5540984,3.65 C16.5540984,2.90897331 15.6856993,2.2 14.5081967,2.2 Z" id="Oval" fill="#FFFFFF" fill-rule="nonzero"></path>
        <path d="M19.5245902,5.2245614 C20.6708074,5.2245614 21.6,6.15375404 21.6,7.29997124 L21.6,9.62036238 C21.6,10.2776718 21.0671455,10.8105263 20.4098361,10.8105263 L3.59016393,10.8105263 C2.93285454,10.8105263 2.4,10.2776718 2.4,9.62036238 L2.4,7.29997124 C2.4,6.15375404 3.32919263,5.2245614 4.47540984,5.2245614 L19.5245902,5.2245614 Z M19.5245902,6.4245614 L4.47540984,6.4245614 C3.99193433,6.4245614 3.6,6.81649574 3.6,7.29997124 L3.6,9.6095614 L20.4,9.6095614 L20.4,7.29997124 C20.4,6.85368616 20.0660441,6.48540066 19.6343997,6.43138209 L19.5245902,6.4245614 Z" id="Rectangle" fill="#FFFFFF" fill-rule="nonzero"></path>
        <path d="M5.07540984,10.7953216 L5.07540984,18.3761864 C5.07540984,19.3485697 5.86368226,20.1368421 6.83606557,20.1368421 L17.1639344,20.1368421 C18.1363177,20.1368421 18.9245902,19.3485697 18.9245902,18.3761864 L18.9245902,10.7953216 L20.1245902,10.7953216 L20.1245902,18.3761864 C20.1245902,20.0113114 18.7990594,21.3368421 17.1639344,21.3368421 L6.83606557,21.3368421 C5.20094056,21.3368421 3.87540984,20.0113114 3.87540984,18.3761864 L3.87540984,10.7953216 L5.07540984,10.7953216 Z" id="Path" fill="#FFFFFF" fill-rule="nonzero"></path>
        <polygon id="Path" fill="#FFFFFF" fill-rule="nonzero" points="11.4 6.11695906 11.4 21 12.6 21 12.6 6.11695906"></polygon>
    </g>
</svg>