<?xml version="1.0" encoding="UTF-8"?>
<svg width="24px" height="24px" viewBox="0 0 24 24" version="1.1" xmlns="http://www.w3.org/2000/svg" xmlns:xlink="http://www.w3.org/1999/xlink">
    <title>Icon / Menu / users_stars</title>
    <g id="Icon-/-Menu-/-users_stars" stroke="none" stroke-width="1" fill="none" fill-rule="evenodd">
        <path d="M10.6647222,14.6083333 C13.1679529,14.6083333 15.1972222,16.6376027 15.1972222,19.1408333 L15.1972222,19.1805556 C15.1972222,19.5119264 14.9285931,19.7805556 14.5972222,19.7805556 C14.2658514,19.7805556 13.9972222,19.5119264 13.9972222,19.1805556 L13.9972222,19.1408333 C13.9972222,17.3003444 12.5052112,15.8083333 10.6647222,15.8083333 L5.47983871,15.8083333 C3.75894714,15.8083333 2.36388889,17.2033916 2.36388889,18.9242832 C2.36388889,19.255654 2.09525974,19.5242832 1.76388889,19.5242832 C1.43251804,19.5242832 1.16388889,19.255654 1.16388889,18.9242832 C1.16388889,16.5406499 3.09620544,14.6083333 5.47983871,14.6083333 L10.6647222,14.6083333 Z" id="Path" fill="#FFFFFF" fill-rule="nonzero"></path>
        <path d="M8.47745116,3.81325275 C8.84434853,3.9691957 9.13648401,4.26133118 9.29242697,4.62822855 L9.837,5.91011111 L11.2536218,6.01848992 C12.0546381,6.07958882 12.6656371,6.74303885 12.6765549,7.53105369 L12.6721689,7.67131095 C12.640454,8.08709799 12.4414977,8.47225506 12.1207729,8.73875142 L11.07,9.61111111 L11.3938701,10.9206432 C11.5864903,11.7005519 11.1475494,12.4884712 10.4025244,12.745423 L10.2679383,12.785146 C9.87396987,12.8824474 9.45751925,12.8203294 9.10909531,12.6122923 L7.874,11.8751111 L6.65149995,12.6059661 C5.96413876,13.016376 5.08613461,12.8292111 4.62167189,12.196898 L4.53957882,12.0731599 C4.32863667,11.7198706 4.26783432,11.2968624 4.3707302,10.8984627 L4.60871396,9.97701978 C4.63955115,9.85762211 4.67934978,9.74174595 4.72741862,9.63019415 L4.781,9.51711111 C4.72402035,9.48693702 4.66830927,9.45442225 4.61377597,9.41969742 L4.45384681,9.30892937 L3.75085061,8.78062735 C3.07086182,8.2696154 2.93387902,7.30411853 3.44489097,6.62412974 C3.71113573,6.26984554 4.11709183,6.04742064 4.55898263,6.01371466 L5.912,5.91011111 L6.45757303,4.62822855 C6.79029762,3.84540525 7.69462787,3.48052816 8.47745116,3.81325275 Z M8.00805289,4.91763731 C7.83516435,4.84415422 7.63544068,4.92473827 7.5619576,5.09762682 L6.81242023,6.8611133 C6.762712,6.97806516 6.65195707,7.05755523 6.52524782,7.06722019 L4.65024959,7.21023893 C4.55265687,7.21768299 4.46300042,7.2668061 4.40419957,7.34505068 C4.29134126,7.49522796 4.32159427,7.70846043 4.47177155,7.82131874 L5.17476775,8.34962077 C5.44651754,8.55384088 5.78694643,8.64456615 6.12428682,8.60267031 L7.57841053,8.42207605 C7.70002725,8.40697192 7.81692252,8.4743167 7.86485999,8.58710305 C7.92415906,8.72662077 7.85912899,8.88779362 7.71961127,8.94709269 L6.4517079,9.48598834 C6.11405341,9.62950127 5.8623347,9.92186941 5.77058814,10.2771004 L5.53260437,11.1985433 C5.50987955,11.2865309 5.52330791,11.3799534 5.56989503,11.4579782 C5.66620013,11.6192716 5.87502492,11.671955 6.03631826,11.5756499 L7.70062419,10.5819253 C7.80803032,10.5177952 7.94196968,10.5177952 8.04937581,10.5819253 L9.72427701,11.5819761 C9.80122733,11.6279216 9.89320153,11.6416405 9.98021047,11.6201513 C10.1625874,11.5751082 10.2739185,11.3907479 10.2288754,11.208371 L9.77632428,9.37601536 C9.74506588,9.24945178 9.78889505,9.11615638 9.88916433,9.03284072 L11.3538674,7.81579097 C11.4247003,7.75693456 11.4686403,7.67187163 11.4756446,7.58004398 C11.4899322,7.3927312 11.3496676,7.2293018 11.1623548,7.21501419 L9.22475218,7.06722019 C9.09804293,7.05755523 8.987288,6.97806516 8.93757977,6.8611133 L8.1880424,5.09762682 C8.153602,5.01659659 8.08908313,4.95207771 8.00805289,4.91763731 Z" id="Star" fill="#FFFFFF" fill-rule="nonzero"></path>
        <path d="M18.0174227,5.90931057 C18.3486503,6.04652517 18.611812,6.3096869 18.7490266,6.64091449 L19.1044444,7.5 L20.0337984,7.57332883 C20.7344012,7.62815795 21.2683217,8.20775826 21.2801433,8.89635992 L21.2761548,9.02664858 C21.2481303,9.38474356 21.0787573,9.71696686 20.805417,9.94999576 L20.0974444,10.552 L20.3154363,11.4563406 C20.4799024,12.1395692 20.0937745,12.8265284 19.4425658,13.0506693 L19.3174274,13.0871582 C18.9686126,13.1711245 18.6007266,13.1129982 18.2947908,12.9255805 L17.4994444,12.438 L16.7339799,12.9079554 C16.1370798,13.2736191 15.3682309,13.1207349 14.9530722,12.5755767 L14.8749121,12.4613522 C14.6783232,12.1404454 14.6243898,11.7521195 14.7260855,11.389785 L14.9136874,10.721373 C14.9302657,10.6623057 14.9495081,10.6043097 14.9712932,10.5475329 L14.9924444,10.496 L14.8586084,10.4042198 L14.3173233,9.99771597 C13.7202762,9.54933497 13.5997585,8.701848 14.0481395,8.10480086 C14.2812853,7.79435268 14.6366446,7.59911993 15.0237072,7.56882844 L15.8944444,7.5 L16.2509734,6.64091449 C16.536738,5.95109613 17.3276044,5.6235459 18.0174227,5.90931057 Z M17.59643,6.9255611 C17.4678713,6.87230428 17.3204807,6.93334851 17.2672239,7.0619072 L16.7120856,8.40197687 C16.6758104,8.48954314 16.5934614,8.54934298 16.4989677,8.55673805 L15.1095308,8.66547529 C15.0373954,8.6711206 14.9711685,8.70750534 14.9277181,8.76536233 C14.8441551,8.87663162 14.8666155,9.03457438 14.9778848,9.11813736 L15.5191699,9.52464117 C15.7230236,9.67773481 15.9788884,9.7445585 16.2315688,9.71069694 L17.183292,9.58315701 C17.2805543,9.57012294 17.375435,9.61996727 17.4198915,9.70745139 C17.4776834,9.82117784 17.4323395,9.96022092 17.318613,10.0180128 L16.4184593,10.4754402 C16.2004755,10.5862121 16.0388382,10.7832041 15.9727639,11.0186219 L15.7851621,11.6870339 C15.7662094,11.7545607 15.7762608,11.8269315 15.8128983,11.8867376 C15.8855887,12.0053956 16.0407073,12.0426597 16.1593653,11.9699692 L17.3683823,11.2293199 C17.449152,11.17984 17.550848,11.17984 17.6316177,11.2293199 L18.8694054,11.9875943 C18.9264214,12.0225226 18.9949829,12.0333554 19.0599901,12.0177069 C19.1952788,11.9851403 19.2785516,11.8490667 19.245985,11.7137779 L18.9067247,10.304416 C18.8845188,10.212168 18.9160198,10.1152669 18.988225,10.0537103 L20.0917784,9.1129056 C20.1427197,9.06947694 20.1742851,9.00756181 20.1795079,8.94082508 C20.1903648,8.80209601 20.086704,8.68083261 19.9479749,8.66997568 L18.5010323,8.55673805 C18.4065386,8.54934298 18.3241896,8.48954314 18.2879144,8.40197687 L17.7327761,7.0619072 C17.707204,7.00017764 17.6581596,6.95113324 17.59643,6.9255611 Z" id="Star-Copy" fill="#FFFFFF" fill-rule="nonzero"></path>
        <path d="M18.2638889,14.6083333 C20.7890575,14.6083333 22.8361111,16.6553869 22.8361111,19.1805556 C22.8361111,19.5119264 22.567482,19.7805556 22.2361111,19.7805556 C21.9047403,19.7805556 21.6361111,19.5119264 21.6361111,19.1805556 C21.6361111,17.3181286 20.1263158,15.8083333 18.2638889,15.8083333 L15.8789648,15.8077138 C15.6342075,15.3537143 15.2908888,14.9468235 14.8660915,14.6068359 L18.2638889,14.6083333 Z" id="Path" fill="#FFFFFF" fill-rule="nonzero"></path>
    </g>
</svg>