<?xml version="1.0" encoding="UTF-8"?>
<svg width="126px" height="126px" viewBox="0 0 126 126" version="1.1" xmlns="http://www.w3.org/2000/svg" xmlns:xlink="http://www.w3.org/1999/xlink">
    <title>Ava 162 Rexy</title>
    <defs>
        <circle id="path-1" cx="63" cy="63" r="63"></circle>
    </defs>
    <g id="Ava-162-Rexy" stroke="none" stroke-width="1" fill="none" fill-rule="evenodd">
        <mask id="mask-2" fill="white">
            <use xlink:href="#path-1"></use>
        </mask>
        <use id="Oval" fill="#F4D454" xlink:href="#path-1"></use>
        <path d="M20.9365158,39.9285889 C24.7183624,31.4071028 27.39054,26.7087411 28.9530487,25.8335037 C30.5155574,24.9582663 32.8521129,26.5702048 35.9627151,30.6693192 C38.1674265,23.2693946 40.454073,19.3094286 42.8226547,18.7894211 C45.1912364,18.2694136 48.2904872,21.0940965 52.1204071,27.2634697 C53.2907797,18.7657681 55.6841055,14.3446116 59.3003845,14 C62.9166636,13.6553884 67.909128,17.5998897 74.2777778,25.8335037 L20.9365158,39.9285889 Z" id="Path-92" fill="#00622A" mask="url(#mask-2)"></path>
        <path d="M113.382046,59.9689401 C111.646616,79.7709027 103.651333,99.2022228 68.3362932,97.2456493 L68.3340728,126.444671 C50.5706421,126.365992 36.5311584,122.520289 26.2156219,114.907562 C5.36217985,99.5180032 4.80651882,90.9000882 6.018463,89.7481658 C10.3595505,85.6220715 15.243288,82.7458807 19.9963714,81.3142806 C14.5563011,75.4154211 12.9013848,68.2050059 12.9013848,59.968468 C12.9013848,41.6878698 21.053446,28.4625028 60.6434922,23.4074139 C102.520435,18.0603208 115.237005,38.8030915 113.382046,59.9689401 Z" id="Path" fill="#00BD51" fill-rule="nonzero" mask="url(#mask-2)"></path>
        <path d="M82.1644268,46.2841197 C84.4629926,46.941711 88.2595133,46.7703045 88.634112,45.6237328 C89.0087107,44.4771609 86.0738383,42.0518988 83.7752725,41.3943072 C81.4767067,40.7367156 80.6848676,42.0958112 80.3102692,43.2423831 C79.9356705,44.3889548 79.8658612,45.6265281 82.1644268,46.2841197 Z" id="Oval" fill="#00622A" fill-rule="nonzero" mask="url(#mask-2)"></path>
        <path d="M96.1644268,46.2841197 C98.4629926,46.941711 102.259513,46.7703045 102.634112,45.6237328 C103.008711,44.4771609 100.073838,42.0518988 97.7752725,41.3943072 C95.4767067,40.7367156 94.6848676,42.0958112 94.3102692,43.2423831 C93.9356705,44.3889548 93.8658612,45.6265281 96.1644268,46.2841197 Z" id="Oval-Copy-2" fill="#00622A" fill-rule="nonzero" mask="url(#mask-2)" transform="translate(98.388889, 43.944444) scale(-1, 1) translate(-98.388889, -43.944444) "></path>
        <path d="M44.7245297,63.7777778 C50.0939491,63.779095 54.4456778,59.7381382 54.4444444,54.7519781 C54.4430977,49.765818 52.6382331,42.5145062 47.6891674,42.0211945 C42.7401014,41.527883 34.9987102,49.7607933 35,54.7469536 C35.0012903,59.7331137 39.3551104,63.7763201 44.7245297,63.7777778 Z" id="Oval" fill="#000000" fill-rule="nonzero" mask="url(#mask-2)" transform="translate(44.722222, 52.888889) rotate(90.000000) translate(-44.722222, -52.888889) "></path>
        <path d="M40.600111,57.5555556 C41.9747478,57.5555556 44.3333333,55.7107934 44.3333333,52.9186871 C44.3333333,50.1265809 41.9747478,47.4444444 40.600111,47.4444444 C39.2254743,47.4444444 38.1111111,49.7078939 38.1111111,52.5 C38.1111111,55.2921064 39.2254743,57.5555556 40.600111,57.5555556 Z" id="Oval-Copy-3" fill="#FFFFFF" fill-rule="nonzero" mask="url(#mask-2)" transform="translate(41.222222, 52.500000) rotate(14.000000) translate(-41.222222, -52.500000) "></path>
        <path d="M108.111111,78.3190968 C106.65873,74.7975624 104.722222,67.2849559 100.607143,67.2849559 C96.5912923,67.2849559 95.6998306,78.3931281 90.6825397,78.5538657 C85.6652488,78.7146033 85.5989207,67.3547766 80.429916,67.3184109 C75.6746032,67.2849559 74.2222222,78.7886347 69.6230159,78.3190968 C64.8128967,77.8280266 63.0873016,73.6237177 60.6666667,66.1111111" id="Path-14" stroke="#00622A" stroke-width="4.33880817" stroke-linecap="round" mask="url(#mask-2)"></path>
        <ellipse id="Oval" fill="#008539" fill-rule="nonzero" opacity="0.396437872" mask="url(#mask-2)" cx="45.5" cy="70.7777778" rx="11.2777778" ry="6.22222222"></ellipse>
        <path d="M35.7777778,95.6666667 C45.2804615,95.6666667 54.2610145,93.7065293 62.2222222,90.2222222" id="Path-Copy-3" stroke="#00A747" stroke-width="4.33880817" stroke-linecap="round" mask="url(#mask-2)" transform="translate(49.000000, 92.944444) rotate(27.000000) translate(-49.000000, -92.944444) "></path>
        <path d="M78.1618679,117.358247 C79.3525078,116.20628 79.3525078,114.338572 78.1618679,113.186605 L77.3961352,112.446155 L78.6178432,112.446078 C80.2765307,112.446078 81.62585,111.164538 81.6657586,109.569018 L81.6666667,109.496281 C81.6666667,107.891469 80.3421047,106.585976 78.6930217,106.547364 L78.6178432,106.546485 L76.9444278,106.54665 L78.1618679,105.368951 C79.3329891,104.235868 79.3521879,102.41032 78.2194641,101.254534 L78.1618679,101.197309 C76.9907468,100.064226 75.1039127,100.045651 73.9093257,101.141583 L73.8501796,101.197309 L67.7818776,107.068509 C67.1541415,107.675855 66.8573641,108.482154 66.8915453,109.27762 C66.8573047,110.07324 67.1540787,110.879639 67.7818776,111.487047 L73.8501796,117.358247 C75.0408195,118.510214 76.9712281,118.510214 78.1618679,117.358247 Z" id="Path" fill="#00BD51" fill-rule="nonzero" mask="url(#mask-2)"></path>
    </g>
</svg>