<?xml version="1.0" encoding="UTF-8"?>
<svg width="72px" height="72px" viewBox="0 0 72 72" version="1.1" xmlns="http://www.w3.org/2000/svg" xmlns:xlink="http://www.w3.org/1999/xlink">
    <title>Filled / filled_verify_age</title>
    <g id="Filled-/-filled_verify_age" stroke="none" stroke-width="1" fill="none" fill-rule="evenodd">
        <path d="M36,34.9473684 C33.5842105,34.9473684 31.5592105,34.1302632 29.925,32.4960526 C28.2907895,30.8618421 27.4736842,28.8368421 27.4736842,26.4210526 C27.4736842,24.0526316 28.2907895,22.0394737 29.925,20.3815789 C31.5592105,18.7236842 33.5842105,17.8947368 36,17.8947368 C38.3684211,17.8947368 40.3815789,18.7236842 42.0394737,20.3815789 C43.6973684,22.0394737 44.5263158,24.0526316 44.5263158,26.4210526 C44.5263158,28.8368421 43.6973684,30.8618421 42.0394737,32.4960526 C40.3815789,34.1302632 38.3684211,34.9473684 36,34.9473684 Z" id="Path" fill="#FFFFFF" fill-rule="nonzero"></path>
        <path d="M18.9473684,49.6842105 L18.9473684,47.1263158 C18.9473684,46.1315789 19.1960526,45.1960526 19.6934211,44.3197368 C20.1907895,43.4434211 20.8657895,42.7447368 21.7184211,42.2236842 C23.8973684,40.9447368 26.1828947,39.9736842 28.575,39.3105263 C30.9671053,38.6473684 33.4421053,38.3157895 36,38.3157895 C38.5578947,38.3157895 41.0328947,38.6473684 43.425,39.3105263 C45.8171053,39.9736842 48.1026316,40.9447368 50.2815789,42.2236842 C51.1342105,42.7447368 51.8092105,43.4434211 52.3065789,44.3197368 C52.8039474,45.1960526 53.0526316,46.1315789 53.0526316,47.1263158 L53.0526316,49.6842105 C53.0526316,50.4894737 52.7802632,51.1644737 52.2355263,51.7092105 C51.6907895,52.2539474 51.0157895,52.5263158 50.2105263,52.5263158 L21.7894737,52.5263158 C20.9842105,52.5263158 20.3092105,52.2539474 19.7644737,51.7092105 C19.2197368,51.1644737 18.9473684,50.4894737 18.9473684,49.6842105 Z" id="Path" fill="#FFFFFF" fill-rule="nonzero"></path>
        <path d="M11.6842105,66 C10.1210526,66 8.78289474,65.4434211 7.66973684,64.3302632 C6.55657895,63.2171053 6,61.8789474 6,60.3157895 L6,51.7894737 C6,50.9842105 6.27236842,50.3092105 6.81710526,49.7644737 C7.36184211,49.2197368 8.03684211,48.9473684 8.84210526,48.9473684 C9.64736842,48.9473684 10.3223684,49.2197368 10.8671053,49.7644737 C11.4118421,50.3092105 11.6842105,50.9842105 11.6842105,51.7894737 L11.6842105,60.3157895 L20.2105263,60.3157895 C21.0157895,60.3157895 21.6907895,60.5881579 22.2355263,61.1328947 C22.7802632,61.6776316 23.0526316,62.3526316 23.0526316,63.1578947 C23.0526316,63.9631579 22.7802632,64.6381579 22.2355263,65.1828947 C21.6907895,65.7276316 21.0157895,66 20.2105263,66 L11.6842105,66 Z" id="Path" fill="#FFFFFF" fill-rule="nonzero"></path>
        <path d="M6,20.2105263 L6,11.6842105 C6,10.1210526 6.55657895,8.78289474 7.66973684,7.66973684 C8.78289474,6.55657895 10.1210526,6 11.6842105,6 L20.2105263,6 C21.0157895,6 21.6907895,6.27236842 22.2355263,6.81710526 C22.7802632,7.36184211 23.0526316,8.03684211 23.0526316,8.84210526 C23.0526316,9.64736842 22.7802632,10.3223684 22.2355263,10.8671053 C21.6907895,11.4118421 21.0157895,11.6842105 20.2105263,11.6842105 L11.6842105,11.6842105 L11.6842105,20.2105263 C11.6842105,21.0157895 11.4118421,21.6907895 10.8671053,22.2355263 C10.3223684,22.7802632 9.64736842,23.0526316 8.84210526,23.0526316 C8.03684211,23.0526316 7.36184211,22.7802632 6.81710526,22.2355263 C6.27236842,21.6907895 6,21.0157895 6,20.2105263 Z" id="Path" fill="#FFFFFF" fill-rule="nonzero"></path>
        <path d="M60.3157895,66 L51.7894737,66 C50.9842105,66 50.3092105,65.7276316 49.7644737,65.1828947 C49.2197368,64.6381579 48.9473684,63.9631579 48.9473684,63.1578947 C48.9473684,62.3526316 49.2197368,61.6776316 49.7644737,61.1328947 C50.3092105,60.5881579 50.9842105,60.3157895 51.7894737,60.3157895 L60.3157895,60.3157895 L60.3157895,51.7894737 C60.3157895,50.9842105 60.5881579,50.3092105 61.1328947,49.7644737 C61.6776316,49.2197368 62.3526316,48.9473684 63.1578947,48.9473684 C63.9631579,48.9473684 64.6381579,49.2197368 65.1828947,49.7644737 C65.7276316,50.3092105 66,50.9842105 66,51.7894737 L66,60.3157895 C66,61.8789474 65.4434211,63.2171053 64.3302632,64.3302632 C63.2171053,65.4434211 61.8789474,66 60.3157895,66 Z" id="Path" fill="#FFFFFF" fill-rule="nonzero"></path>
        <path d="M60.3157895,20.2105263 L60.3157895,11.6842105 L51.7894737,11.6842105 C50.9842105,11.6842105 50.3092105,11.4118421 49.7644737,10.8671053 C49.2197368,10.3223684 48.9473684,9.64736842 48.9473684,8.84210526 C48.9473684,8.03684211 49.2197368,7.36184211 49.7644737,6.81710526 C50.3092105,6.27236842 50.9842105,6 51.7894737,6 L60.3157895,6 C61.8789474,6 63.2171053,6.55657895 64.3302632,7.66973684 C65.4434211,8.78289474 66,10.1210526 66,11.6842105 L66,20.2105263 C66,21.0157895 65.7276316,21.6907895 65.1828947,22.2355263 C64.6381579,22.7802632 63.9631579,23.0526316 63.1578947,23.0526316 C62.3526316,23.0526316 61.6776316,22.7802632 61.1328947,22.2355263 C60.5881579,21.6907895 60.3157895,21.0157895 60.3157895,20.2105263 Z" id="Path" fill="#FFFFFF" fill-rule="nonzero"></path>
    </g>
</svg>