<?xml version="1.0" encoding="UTF-8"?>
<svg width="48px" height="48px" viewBox="0 0 48 48" version="1.1" xmlns="http://www.w3.org/2000/svg" xmlns:xlink="http://www.w3.org/1999/xlink">
    <title>Mini / mini_gift_sorting1</title>
    <g id="Mini-/-mini_gift_sorting1" stroke="none" stroke-width="1" fill="none" fill-rule="evenodd">
        <path d="M23.4380165,1.95 C35.3025073,1.95 44.9260331,11.510317 44.9260331,23.3103448 C44.9260331,23.5919731 44.9205389,23.8730129 44.9095753,24.1533571 C44.8653322,25.2846761 43.9123508,26.1659251 42.7810319,26.121682 C41.6497129,26.0774389 40.7684638,25.1244576 40.812707,23.9931386 C40.8215831,23.7661706 40.8260331,23.5385471 40.8260331,23.3103448 C40.8260331,13.7807547 33.0441659,6.05 23.4380165,6.05 C13.8318671,6.05 6.05,13.7807547 6.05,23.3103448 C6.05,32.839935 13.8318671,40.5706897 23.4380165,40.5706897 C25.2657432,40.5706897 27.0529516,40.2914087 28.7555206,39.7492213 C29.8343232,39.4056738 30.9873658,40.0017158 31.3309133,41.0805185 C31.6744608,42.1593211 31.0784187,43.3123637 29.9996161,43.6559112 C27.8959061,44.3258431 25.6891219,44.6706897 23.4380165,44.6706897 C11.5735257,44.6706897 1.95,35.1103726 1.95,23.3103448 C1.95,11.510317 11.5735257,1.95 23.4380165,1.95 Z" id="Path" fill="#FFFFFF" fill-rule="nonzero"></path>
        <path d="M39.7913043,28.3413043 C40.9234881,28.3413043 41.8413043,29.2591206 41.8413043,30.3913043 L41.8413043,45 C41.8413043,46.1321837 40.9234881,47.05 39.7913043,47.05 C38.6591206,47.05 37.7413043,46.1321837 37.7413043,45 L37.7413043,30.3913043 C37.7413043,29.2591206 38.6591206,28.3413043 39.7913043,28.3413043 Z" id="Path" fill="#FFFFFF" fill-rule="nonzero"></path>
        <path d="M32.1330398,38.0495689 C32.9336146,38.8501437 34.2316028,38.8501437 35.0321776,38.0495689 L39.7906087,33.291 L44.5504311,38.0495689 C45.3088704,38.8080082 46.5137416,38.847926 47.3191738,38.1693225 L47.4495689,38.0495689 C48.2501437,37.2489941 48.2501437,35.9510059 47.4495689,35.1504311 L41.7573686,29.4582308 C40.6715413,28.3724035 38.9110674,28.3724035 37.8252401,29.4582308 L32.1330398,35.1504311 C31.332465,35.9510059 31.332465,37.2489941 32.1330398,38.0495689 Z" id="Path" fill="#FFFFFF" fill-rule="nonzero"></path>
        <path d="M23.8366211,35.9195313 C24.4958008,35.9195313 25.281738,35.5533203 25.281738,34.6744141 L25.281738,33.5025391 C29.2221677,33.0777344 31.4831055,30.7632813 31.4831055,27.3941406 C31.4831055,24.49375 29.7399414,22.7359375 26.1217773,21.9449219 L23.1481445,21.2710938 C21.287793,20.8609375 20.3795898,20.0113281 20.3795898,18.7662109 C20.3795898,17.2720703 21.6686523,16.1880859 23.6901367,16.1880859 C25.3307617,16.1880859 26.4733398,16.7447266 27.7477539,18.165625 C28.3922852,18.8394531 28.890332,19.0884766 29.5641602,19.0884766 C30.3844727,19.0884766 31.0143555,18.5171875 31.0143555,17.6675781 C31.0143555,16.8472656 30.530957,15.9537109 29.7106445,15.1480469 C28.6266602,14.1226563 27.2006837,13.4488281 25.369629,13.2144531 L25.369629,11.9986328 C25.369629,11.134375 24.5836914,10.7681641 23.9098633,10.7681641 C23.2506836,10.7681641 22.464746,11.1197266 22.464746,11.9986328 L22.464746,13.1705078 C18.6708007,13.5220703 16.4538086,15.7925781 16.4538086,19.0445313 C16.4538086,21.8863281 18.1969727,23.7759766 21.5368164,24.5230469 L24.5104492,25.2115234 C26.678418,25.7242188 27.5719727,26.4859375 27.5719727,27.775 C27.5719727,29.4449219 26.2682617,30.4996094 23.9391602,30.4996094 C22.1959961,30.4996094 20.7458008,29.8404297 19.4274414,28.4195313 C18.6803711,27.6724609 18.2702148,27.5113281 17.7135742,27.5113281 C16.8200195,27.5113281 16.1461914,28.0826172 16.1461914,29.0640625 C16.1461914,29.9283203 16.6442383,30.821875 17.537793,31.5982422 C18.709668,32.6675781 20.3407222,33.3267578 22.376855,33.5171875 L22.376855,34.6744141 C22.376855,35.5533203 23.162793,35.9195313 23.8366211,35.9195313 Z" id="Path" fill="#FFFFFF" fill-rule="nonzero"></path>
    </g>
</svg>