<?xml version="1.0" encoding="UTF-8"?>
<svg width="48px" height="48px" viewBox="0 0 48 48" version="1.1" xmlns="http://www.w3.org/2000/svg" xmlns:xlink="http://www.w3.org/1999/xlink">
    <title>Mini / mini_gift_sorting3</title>
    <g id="Mini-/-mini_gift_sorting3" stroke="none" stroke-width="1" fill="none" fill-rule="evenodd">
        <path d="M34.4778761,13.749192 C35.6376741,13.749192 36.5778761,14.689394 36.5778761,15.849192 C36.5778761,17.00899 35.6376741,17.949192 34.4778761,17.949192 L7.57258674,17.949192 C6.41278876,17.949192 5.47258674,17.00899 5.47258674,15.849192 C5.47258674,14.689394 6.41278876,13.749192 7.57258674,13.749192 L34.4778761,13.749192 Z" id="Path" fill="#FFFFFF" fill-rule="nonzero"></path>
        <path d="M30.923367,27.509546 C32.083165,27.509546 33.023367,28.4497481 33.023367,29.609546 C33.023367,30.769344 32.083165,31.709546 30.923367,31.709546 L4,31.709546 C2.84020203,31.709546 1.9,30.769344 1.9,29.609546 C1.9,28.4497481 2.84020203,27.509546 4,27.509546 L30.923367,27.509546 Z" id="Path" fill="#FFFFFF" fill-rule="nonzero"></path>
        <path d="M14.7584617,4.53380965 C15.0159315,3.40295129 16.1413939,2.69492999 17.2722522,2.9523998 C18.4031106,3.20986962 19.1111319,4.33533198 18.8536621,5.46619035 L10.9056841,40.3752813 C10.6482143,41.5061396 9.52275197,42.2141609 8.39189361,41.9566911 C7.26103524,41.6992213 6.55301394,40.5737589 6.81048375,39.4429006 L14.7584617,4.53380965 Z" id="Path" fill="#FFFFFF" fill-rule="nonzero"></path>
        <path d="M28.1811642,4.55038432 C28.4294801,3.41748072 29.5491797,2.70038069 30.6820833,2.94869657 C31.8149869,3.19701246 32.532087,4.31671208 32.2837711,5.44961568 L24.6322095,40.3587066 C24.3838936,41.4916102 23.264194,42.2087102 22.1312904,41.9603943 C20.9983868,41.7120785 20.2812868,40.5923788 20.5296027,39.4594752 L28.1811642,4.55038432 Z" id="Path" fill="#FFFFFF" fill-rule="nonzero"></path>
        <path d="M39.7913043,28.3413043 C40.9234881,28.3413043 41.8413043,29.2591206 41.8413043,30.3913043 L41.8413043,45 C41.8413043,46.1321837 40.9234881,47.05 39.7913043,47.05 C38.6591206,47.05 37.7413043,46.1321837 37.7413043,45 L37.7413043,30.3913043 C37.7413043,29.2591206 38.6591206,28.3413043 39.7913043,28.3413043 Z" id="Path" fill="#FFFFFF" fill-rule="nonzero"></path>
        <path d="M32.1330398,38.0495689 C32.9336146,38.8501437 34.2316028,38.8501437 35.0321776,38.0495689 L39.7906087,33.291 L44.5504311,38.0495689 C45.3088704,38.8080082 46.5137416,38.847926 47.3191738,38.1693225 L47.4495689,38.0495689 C48.2501437,37.2489941 48.2501437,35.9510059 47.4495689,35.1504311 L41.7573686,29.4582308 C40.6715413,28.3724035 38.9110674,28.3724035 37.8252401,29.4582308 L32.1330398,35.1504311 C31.332465,35.9510059 31.332465,37.2489941 32.1330398,38.0495689 Z" id="Path" fill="#FFFFFF" fill-rule="nonzero"></path>
    </g>
</svg>