<?xml version="1.0" encoding="UTF-8"?>
<svg width="48px" height="48px" viewBox="0 0 48 48" version="1.1" xmlns="http://www.w3.org/2000/svg" xmlns:xlink="http://www.w3.org/1999/xlink">
    <title>Mini / mini_gift_sorting2</title>
    <g id="Mini-/-mini_gift_sorting2" stroke="none" stroke-width="1" fill="none" fill-rule="evenodd">
        <path d="M39.7913043,28.3413043 C40.9234881,28.3413043 41.8413043,29.2591206 41.8413043,30.3913043 L41.8413043,45 C41.8413043,46.1321837 40.9234881,47.05 39.7913043,47.05 C38.6591206,47.05 37.7413043,46.1321837 37.7413043,45 L37.7413043,30.3913043 C37.7413043,29.2591206 38.6591206,28.3413043 39.7913043,28.3413043 Z" id="Path" fill="#FFFFFF" fill-rule="nonzero"></path>
        <path d="M32.1330398,38.0495689 C32.9336146,38.8501437 34.2316028,38.8501437 35.0321776,38.0495689 L39.7906087,33.291 L44.5504311,38.0495689 C45.3088704,38.8080082 46.5137416,38.847926 47.3191738,38.1693225 L47.4495689,38.0495689 C48.2501437,37.2489941 48.2501437,35.9510059 47.4495689,35.1504311 L41.7573686,29.4582308 C40.6715413,28.3724035 38.9110674,28.3724035 37.8252401,29.4582308 L32.1330398,35.1504311 C31.332465,35.9510059 31.332465,37.2489941 32.1330398,38.0495689 Z" id="Path" fill="#FFFFFF" fill-rule="nonzero"></path>
        <path d="M36.5217391,5.3326087 C40.4153466,5.3326087 43.5717391,8.48900121 43.5717391,12.3826087 L43.5717391,21.7217391 C43.5717391,22.8539229 42.6539229,23.7717391 41.5217391,23.7717391 C40.3895554,23.7717391 39.4717391,22.8539229 39.4717391,21.7217391 L39.4717391,12.3826087 C39.4717391,10.7533687 38.1509791,9.4326087 36.5217391,9.4326087 L10,9.4326087 C8.37075999,9.4326087 7.05,10.7533687 7.05,12.3826087 L7.05,35.9826087 C7.05,37.6118487 8.37075999,38.9326087 10,38.9326087 L27.373913,38.9326087 C28.5060968,38.9326087 29.423913,39.850425 29.423913,40.9826087 C29.423913,42.1147924 28.5060968,43.0326087 27.373913,43.0326087 L10,43.0326087 C6.10639251,43.0326087 2.95,39.8762162 2.95,35.9826087 L2.95,12.3826087 C2.95,8.48900121 6.10639251,5.3326087 10,5.3326087 L36.5217391,5.3326087 Z" id="Path" fill="#FFFFFF" fill-rule="nonzero"></path>
        <polygon id="Path" fill="#FFFFFF" fill-rule="nonzero" points="6.09565217 20.3891304 40.426087 20.3891304 40.426087 16.2891304 6.09565217 16.2891304"></polygon>
        <path d="M11.8434783,0.95 C12.975662,0.95 13.8934783,1.86781626 13.8934783,3 L13.8934783,6.65217391 C13.8934783,7.78435765 12.975662,8.70217391 11.8434783,8.70217391 C10.7112945,8.70217391 9.79347826,7.78435765 9.79347826,6.65217391 L9.79347826,3 C9.79347826,1.86781626 10.7112945,0.95 11.8434783,0.95 Z" id="Path" fill="#FFFFFF" fill-rule="nonzero"></path>
        <path d="M34.6782609,0.95 C35.8104446,0.95 36.7282609,1.86781626 36.7282609,3 L36.7282609,6.65217391 C36.7282609,7.78435765 35.8104446,8.70217391 34.6782609,8.70217391 C33.5460771,8.70217391 32.6282609,7.78435765 32.6282609,6.65217391 L32.6282609,3 C32.6282609,1.86781626 33.5460771,0.95 34.6782609,0.95 Z" id="Path" fill="#FFFFFF" fill-rule="nonzero"></path>
    </g>
</svg>