<?xml version="1.0" encoding="UTF-8"?>
<svg version="1.1" viewBox="0 0 76 73" xmlns="http://www.w3.org/2000/svg">
<title>Star</title>
<g fill="none" fill-rule="evenodd">
<g transform="translate(-5 -5)" fill="#fff">
<path d="m40.806 66.037-17.389 10.627c-1.5943 0.97436-3.6766 0.4718-4.651-1.1225-0.47558-0.77817-0.61685-1.7154-0.39178-2.5992l2.8114-11.039c0.91458-3.5913 3.3384-6.6111 6.6467-8.281l15.265-7.7056c0.84279-0.42542 1.1811-1.4535 0.7557-2.2963-0.3335-0.66067-1.0543-1.0317-1.7857-0.91925l-17.288 2.6578c-4.0448 0.62183-8.1617-0.52596-11.301-3.1508l-7.112-5.9459c-1.4335-1.1985-1.624-3.3321-0.42557-4.7656 0.58391-0.69842 1.4246-1.1321 2.3322-1.2029l20.357-1.5894c1.3848-0.10811 2.5919-0.98375 3.1246-2.2665l7.8535-18.913c0.71656-1.7256 2.6963-2.5436 4.4219-1.8271 0.82676 0.34331 1.4838 1.0003 1.8271 1.8271l7.8535 18.913c0.53267 1.2828 1.7398 2.1584 3.1246 2.2665l20.456 1.5971c1.8628 0.14544 3.255 1.7734 3.1096 3.6363-0.070088 0.89771-0.49515 1.7304-1.1811 2.3138l-15.589 13.259c-1.0616 0.90287-1.5248 2.3263-1.1979 3.681l4.7945 19.87c0.43827 1.8163-0.67888 3.6441-2.4952 4.0824-0.87218 0.21045-1.7922 0.065833-2.5578-0.40204l-17.515-10.704c-1.1827-0.72283-2.6706-0.72283-3.8533 0z"/>
</g>
</g>
</svg>
