<?xml version="1.0" encoding="UTF-8"?>
<svg version="1.1" viewBox="0 0 36 36" xmlns="http://www.w3.org/2000/svg">
<title>ministar</title>
<g fill="none" fill-rule="evenodd">
<path d="m14.079 21.23-8.3538-2.2799c-0.52464-0.14318-0.83388-0.68456-0.69069-1.2092 0.091766-0.33624 0.35445-0.59893 0.69069-0.69069l8.3538-2.2799c0.33624-0.091766 0.59893-0.35445 0.69069-0.69069l2.2799-8.3538c0.14318-0.52464 0.68456-0.83388 1.2092-0.69069 0.33624 0.091766 0.59893 0.35445 0.69069 0.69069l2.2799 8.3538c0.091766 0.33624 0.35445 0.59893 0.69069 0.69069l8.3538 2.2799c0.52464 0.14318 0.83388 0.68456 0.69069 1.2092-0.091766 0.33624-0.35445 0.59893-0.69069 0.69069l-8.3538 2.2799c-0.33624 0.091766-0.59893 0.35445-0.69069 0.69069l-2.2799 8.3538c-0.14318 0.52464-0.68456 0.83388-1.2092 0.69069-0.33624-0.091766-0.59893-0.35445-0.69069-0.69069l-2.2799-8.3538c-0.091766-0.33624-0.35445-0.59893-0.69069-0.69069z" fill="#fff"/>
</g>
</svg>
