<?xml version="1.0" encoding="UTF-8"?>
<svg width="40px" height="40px" viewBox="0 0 40 40" version="1.1" xmlns="http://www.w3.org/2000/svg" xmlns:xlink="http://www.w3.org/1999/xlink">
    <title>Icon / Input / input_paid</title>
    <g id="Icon-/-Input-/-input_paid" stroke="none" stroke-width="1" fill="none" fill-rule="evenodd">
        <path d="M20,9.8 C25.6299826,9.8 30.2,14.2730045 30.2,19.7983329 C30.2,25.3236612 25.6299826,29.7966657 20,29.7966657 C18.7457032,29.7966657 17.522531,29.57429 16.3765194,29.1472418 L16.049,29.018 L15.8675895,29.1274403 L15.6273764,29.2612632 C14.545782,29.8404011 13.0955737,30.1473058 11.2731839,30.1996583 C10.8153842,30.2127839 10.4336239,29.8523042 10.4204985,29.3945045 C10.4177264,29.2978179 10.4318913,29.2013918 10.4663408,29.0979123 C10.9468917,27.7307176 11.2958938,26.5818971 11.5130707,25.6565167 L11.566,25.42 L11.5361505,25.3785138 C10.4824637,23.8473989 9.87852612,22.0565089 9.80714989,20.1756532 L9.8,19.7983329 C9.8,14.2730045 14.3700174,9.8 20,9.8 Z M20,11.2 C15.1365724,11.2 11.2,15.0530063 11.2,19.7983329 C11.2,21.6384229 11.7922255,23.3893508 12.8759186,24.8453165 L13.0610907,25.0940992 L13.001223,25.3983974 C12.8243697,26.2973155 12.5137714,27.4099145 12.0719423,28.73207 L12.064,28.754 L12.2244984,28.7405395 C13.2682683,28.6413859 14.1190062,28.4334572 14.7754263,28.1231964 L14.9665215,28.0270547 C15.164827,27.9208723 15.3780604,27.7932923 15.605736,27.6441968 L15.9287098,27.4326945 L16.2799121,27.5930136 C17.4341359,28.1199012 18.6962936,28.3966657 20,28.3966657 C24.8634276,28.3966657 28.8,24.5436594 28.8,19.7983329 C28.8,15.0530063 24.8634276,11.2 20,11.2 Z" id="Shape---" fill="#FFFFFF" fill-rule="nonzero"></path>
        <path d="M20.2258661,25.6815247 C20.5071894,25.6815247 20.874026,25.4574745 20.874026,25.0631159 L20.874026,24.4093038 C22.5557139,24.2186972 23.4454545,23.1802196 23.4454545,21.6685117 C23.4454545,20.3671283 22.7015108,19.5784112 21.1573587,19.2234884 L19.8882782,18.9211469 C19.0943214,18.7371128 18.7067205,18.3558996 18.7067205,17.7972249 C18.7067205,17.1268153 19.2568638,16.6404397 20.1195884,16.6404397 C20.8197708,16.6404397 21.3073978,16.8902001 21.8512894,17.5277465 C22.126361,17.8300881 22.3389164,17.941823 22.6264913,17.941823 C22.9765824,17.941823 23.2454024,17.68549 23.2454024,17.3042767 C23.2454024,16.9362087 23.0390987,16.5352774 22.6890076,16.1737821 C22.2263871,15.713697 21.7022327,15.4113555 20.9207792,15.3061932 L20.9207792,14.6509738 C20.9207792,14.2631879 20.5009377,13.9363049 20.2133629,13.9363049 C19.9320396,13.9363049 19.5493506,14.2566152 19.5493506,14.6509738 L19.5493506,15.2864752 C17.930179,15.4442187 17.0312842,16.4629784 17.0312842,17.9221051 C17.0312842,19.1971979 17.7752279,20.0450688 19.2005991,20.3802736 L20.4696796,20.6891878 C21.3949206,20.9192303 21.7762699,21.2610078 21.7762699,21.8394004 C21.7762699,22.5886817 21.219875,23.061912 20.2258661,23.061912 C19.4819224,23.061912 18.8630112,22.766143 18.3003647,22.1285967 C17.9815316,21.7933919 17.8064861,21.7210928 17.5689242,21.7210928 C17.1875749,21.7210928 16.9,21.9774259 16.9,22.417793 C16.9,22.8055789 17.1125554,23.2065101 17.4939047,23.5548602 C17.9940349,24.0346632 18.7115432,24.3238594 19.5805195,24.4093038 L19.5805195,25.0565432 C19.5805195,25.4509018 19.9382912,25.6815247 20.2258661,25.6815247 Z" id="Path" fill="#FFFFFF" fill-rule="nonzero"></path>
    </g>
</svg>