<?xml version="1.0" encoding="UTF-8"?>
<svg width="24px" height="24px" viewBox="0 0 24 24" version="1.1" xmlns="http://www.w3.org/2000/svg" xmlns:xlink="http://www.w3.org/1999/xlink">
    <title>Icon / Filled / paid_approve</title>
    <g id="Icon-/-Filled-/-paid_approve" stroke="none" stroke-width="1" fill="none" fill-rule="evenodd">
        <path d="M12,4.5 C16.14,4.5 19.5,7.86 19.5,12 C19.5,16.14 16.14,19.5 12,19.5 C7.86,19.5 4.5,16.14 4.5,12 C4.5,7.86 7.86,4.5 12,4.5 Z M15.7577636,9.89127556 C15.4992394,9.62810439 15.0763217,9.62433727 14.8131506,9.88286145 L10.7479688,13.8761719 L9.18684944,12.3424898 C8.92367827,12.0839656 8.50076063,12.0877327 8.24223645,12.3509039 C7.98371227,12.6140751 7.98747939,13.0369927 8.25065056,13.2955169 L10.204967,15.2153247 C10.5064723,15.5115061 10.9896874,15.5115061 11.2911927,15.2153247 L15.7493494,10.8358886 C16.0125206,10.5773644 16.0162877,10.1544467 15.7577636,9.89127556 Z" id="Shape" fill="#FFFFFF" fill-rule="nonzero"></path>
    </g>
</svg>