<?xml version="1.0" encoding="UTF-8"?>
<svg width="24px" height="24px" viewBox="0 0 24 24" version="1.1" xmlns="http://www.w3.org/2000/svg" xmlns:xlink="http://www.w3.org/1999/xlink">
    <title>Icon / Filled / paid_edit</title>
    <g id="Icon-/-Filled-/-paid_edit" stroke="none" stroke-width="1" fill="none" fill-rule="evenodd">
        <path d="M13.5029106,7.64699152 C13.6056531,7.5472623 13.7697888,7.549705 13.869518,7.65244745 L16.2610253,10.1162122 C16.3593492,10.2175069 16.3585592,10.3788499 16.259248,10.4791768 L7.97687653,18.8462593 C7.87948817,18.9446437 7.74680196,19 7.6083679,19 L5.51851849,19 C5.23214864,19 5,18.7678513 5,18.4814815 L5,16.3683223 C5,16.2308422 5.05459809,16.0989896 5.15178971,16.0017551 L13.5029106,7.64699152 Z M16.0299869,5.19856593 C16.3408365,4.91998643 16.8161619,4.93645109 17.1069903,5.23587194 L18.7801411,6.95845528 C19.073802,7.26079221 19.0732123,7.74202152 18.7788114,8.04363789 L17.6449122,9.20518682 C17.5421105,9.3048549 17.3779763,9.30231456 17.2783082,9.19951281 L14.8031149,6.64621027 C14.707554,6.53957983 14.7165277,6.3756714 14.8231582,6.28011055 L16.0299869,5.19856593 Z" id="Shape" fill="#FFFFFF"></path>
    </g>
</svg>