<?xml version="1.0" encoding="UTF-8"?>
<svg width="24px" height="24px" viewBox="0 0 24 24" version="1.1" xmlns="http://www.w3.org/2000/svg" xmlns:xlink="http://www.w3.org/1999/xlink">
    <title>Icon / Filled / paid_decline</title>
    <g id="Icon-/-Filled-/-paid_decline" stroke="none" stroke-width="1" fill="none" fill-rule="evenodd">
        <path d="M12,4.5 C16.1421356,4.5 19.5,7.85786438 19.5,12 C19.5,16.1421356 16.1421356,19.5 12,19.5 C7.85786438,19.5 4.5,16.1421356 4.5,12 C4.5,7.85786438 7.85786438,4.5 12,4.5 Z M9.73375908,8.63964245 C9.43162712,8.33751049 8.94177442,8.33751049 8.63964245,8.63964245 L8.59853606,8.68404063 C8.33819559,8.98800138 8.35189772,9.44601435 8.63964245,9.73375908 L10.9059783,12 L8.63964245,14.2662409 C8.33751049,14.5683729 8.33751049,15.0582256 8.63964245,15.3603575 L8.68404063,15.4014639 C8.98800138,15.6618044 9.44601435,15.6481023 9.73375908,15.3603575 L12,13.0936701 L14.2662409,15.3603575 C14.5683729,15.6624895 15.0582256,15.6624895 15.3603575,15.3603575 L15.4014639,15.3159594 C15.6618044,15.0119986 15.6481023,14.5539856 15.3603575,14.2662409 L13.0936701,12 L15.3603575,9.73375908 C15.6624895,9.43162712 15.6624895,8.94177442 15.3603575,8.63964245 L15.3159594,8.59853606 C15.0119986,8.33819559 14.5539856,8.35189772 14.2662409,8.63964245 L12,10.9059783 L9.73375908,8.63964245 Z" id="Shape" fill="#FFFFFF"></path>
    </g>
</svg>