<?xml version="1.0" encoding="UTF-8"?>
<svg width="72px" height="72px" viewBox="0 0 72 72" version="1.1" xmlns="http://www.w3.org/2000/svg" xmlns:xlink="http://www.w3.org/1999/xlink">
    <title>Badge / level70_inner</title>
    <g id="Badge-/-level70_inner" stroke="none" stroke-width="1" fill="none" fill-rule="evenodd">
        <path d="M25.6231529,53.6849537 L20.2456512,53.1119864 C17.3639984,52.8049492 15.263688,50.1918606 15.5389909,47.256223 L16.0527382,41.7779796 C16.1648264,40.5827489 15.8804506,39.3837383 15.2449668,38.3721824 L12.332278,33.7357975 C10.7714495,31.2512883 11.4691887,27.9507327 13.8958667,26.3394648 L18.424332,23.3326503 C19.4123422,22.6766303 20.1560647,21.7027674 20.5368804,20.5663865 L22.2823186,15.3578763 C23.2176501,12.5667813 26.188027,11.0641444 28.9387422,11.9905637 L34.0718987,13.7193707 C35.1918391,14.0965579 36.4036217,14.0811813 37.5139749,13.6756934 L42.6031895,11.8171724 C45.3303573,10.821243 48.3366176,12.248041 49.3400252,15.0145349 L51.2125014,20.1771366 C51.621034,21.3035012 52.3883797,22.2581898 53.3921518,22.8889356 L57.9928604,25.779908 C60.4582516,27.3290994 61.2366199,30.6109243 59.7371336,33.1342664 L56.9389167,37.8431184 C56.3284081,38.870485 56.07349,40.0763388 56.2148201,41.2683538 L56.8625953,46.7318584 C57.20972,49.6595979 55.1740691,52.3251686 52.3008327,52.7052309 L46.9390371,53.4144716 C45.7692127,53.5692121 44.6839892,54.1181986 43.8564529,54.9738712 L40.0635069,58.8957776 C38.030973,60.9974176 34.7141896,61.0395051 32.6308086,58.9900928 L28.7429758,55.1656495 C27.8947373,54.3312412 26.7964039,53.8099624 25.6231529,53.6849537 Z" id="Star-Flat" fill="#FFFFFF"></path>
    </g>
</svg>