<?xml version="1.0" encoding="UTF-8"?>
<svg width="72px" height="72px" viewBox="0 0 72 72" version="1.1" xmlns="http://www.w3.org/2000/svg" xmlns:xlink="http://www.w3.org/1999/xlink">
    <title>Badge / level60_inner</title>
    <g id="Badge-/-level60_inner" stroke="none" stroke-width="1" fill="none" fill-rule="evenodd">
        <path d="M25.1630277,52.850407 L17.8273486,50.8900353 C15.0747,50.1544232 13.4412291,47.3453418 14.1759196,44.6106697 L16.1338353,37.322897 C16.3667018,36.4561188 16.3667018,35.5438812 16.1338353,34.677103 L14.1759196,27.3893303 C13.4412291,24.6546582 15.0747,21.8455768 17.8273486,21.1099647 L25.1630277,19.149593 C26.0355037,18.9164343 26.8311982,18.4603155 27.4708076,17.826696 L32.848571,12.499295 C34.8665291,10.500235 38.1334709,10.500235 40.151429,12.499295 L45.5291924,17.826696 C46.1688018,18.4603155 46.9644963,18.9164343 47.8369723,19.149593 L55.1726514,21.1099647 C57.9253,21.8455768 59.5587709,24.6546582 58.8240804,27.3893303 L56.8661647,34.677103 C56.6332982,35.5438812 56.6332982,36.4561188 56.8661647,37.322897 L58.8240804,44.6106697 C59.5587709,47.3453418 57.9253,50.1544232 55.1726514,50.8900353 L47.8369723,52.850407 C46.9644963,53.0835657 46.1688018,53.5396845 45.5291924,54.173304 L40.151429,59.500705 C38.1334709,61.499765 34.8665291,61.499765 32.848571,59.500705 L27.4708076,54.173304 C26.8311982,53.5396845 26.0355037,53.0835657 25.1630277,52.850407 Z" id="Star-Flat" fill="#FFFFFF"></path>
    </g>
</svg>