<?xml version="1.0" encoding="UTF-8"?>
<svg width="72px" height="72px" viewBox="0 0 72 72" version="1.1" xmlns="http://www.w3.org/2000/svg" xmlns:xlink="http://www.w3.org/1999/xlink">
    <title>Badge / level30_inner</title>
    <g id="Badge-/-level30_inner" stroke="none" stroke-width="1" fill="none" fill-rule="evenodd">
        <path d="M17.5067188,13.1565216 L35.4932812,17.8672879 C35.8254913,17.9542953 36.1745087,17.9542953 36.5067188,17.8672879 L54.4932812,13.1565216 C55.5618111,12.8766685 56.6548914,13.5160174 56.9347444,14.5845472 C56.9780693,14.7499693 57,14.9202646 57,15.091266 L57,47.2740807 C57,49.2380496 55.850227,51.0201354 54.0608393,51.8296203 L37.2365036,59.4406293 C36.4505105,59.7961976 35.5494895,59.7961976 34.7634964,59.4406293 L17.9391607,51.8296203 C16.149773,51.0201354 15,49.2380496 15,47.2740807 L15,15.091266 C15,13.9866965 15.8954305,13.091266 17,13.091266 C17.1710014,13.091266 17.3412968,13.1131968 17.5067188,13.1565216 Z" id="Path" fill="#FFFFFF"></path>
    </g>
</svg>