<?xml version="1.0" encoding="UTF-8"?>
<svg width="72px" height="72px" viewBox="0 0 72 72" version="1.1" xmlns="http://www.w3.org/2000/svg" xmlns:xlink="http://www.w3.org/1999/xlink">
    <title>Badge / level80_inner</title>
    <g id="Badge-/-level80_inner" stroke="none" stroke-width="1" fill="none" fill-rule="evenodd">
        <path d="M25.4075318,55.0983015 L20.6181753,54.4891523 C18.1878179,54.1800396 16.3367069,52.1599065 16.2405902,49.7118564 L16.0511788,44.887634 C16.0102196,43.84442 15.6446438,42.8400089 15.0054554,42.0145324 L12.0496025,38.1972124 C10.5496559,36.2601145 10.6691726,33.5227316 12.3322407,31.723734 L15.609547,28.1785595 C16.3182481,27.4119333 16.769973,26.4432062 16.9016985,25.4075318 L17.5108477,20.6181753 C17.8199604,18.1878179 19.8400935,16.3367069 22.2881436,16.2405902 L27.112366,16.0511788 C28.15558,16.0102196 29.1599911,15.6446438 29.9854676,15.0054554 L33.8027876,12.0496025 C35.7398855,10.5496559 38.4772684,10.6691726 40.276266,12.3322407 L43.8214405,15.609547 C44.5880667,16.3182481 45.5567938,16.769973 46.5924682,16.9016985 L51.3818247,17.5108477 C53.8121821,17.8199604 55.6632931,19.8400935 55.7594098,22.2881436 L55.9488212,27.112366 C55.9897804,28.15558 56.3553562,29.1599911 56.9945446,29.9854676 L59.9503975,33.8027876 C61.4503441,35.7398855 61.3308274,38.4772684 59.6677593,40.276266 L56.390453,43.8214405 C55.6817519,44.5880667 55.230027,45.5567938 55.0983015,46.5924682 L54.4891523,51.3818247 C54.1800396,53.8121821 52.1599065,55.6632931 49.7118564,55.7594098 L44.887634,55.9488212 C43.84442,55.9897804 42.8400089,56.3553562 42.0145324,56.9945446 L38.1972124,59.9503975 C36.2601145,61.4503441 33.5227316,61.3308274 31.723734,59.6677593 L28.1785595,56.390453 C27.4119333,55.6817519 26.4432062,55.230027 25.4075318,55.0983015 Z" id="Star" fill="#FFFFFF"></path>
    </g>
</svg>