<?xml version="1.0" encoding="UTF-8"?>
<svg width="72px" height="72px" viewBox="0 0 72 72" version="1.1" xmlns="http://www.w3.org/2000/svg" xmlns:xlink="http://www.w3.org/1999/xlink">
    <title>Badge / level8_inner</title>
    <g id="Badge-/-level8_inner" stroke="none" stroke-width="1" fill="none" fill-rule="evenodd">
        <path d="M27.9852814,15 L44.0147186,15 C45.6060176,15 47.132141,15.632141 48.2573593,16.7573593 L55.2426407,23.7426407 C56.367859,24.867859 57,26.3939824 57,27.9852814 L57,44.0147186 C57,45.6060176 56.367859,47.132141 55.2426407,48.2573593 L48.2573593,55.2426407 C47.132141,56.367859 45.6060176,57 44.0147186,57 L27.9852814,57 C26.3939824,57 24.867859,56.367859 23.7426407,55.2426407 L16.7573593,48.2573593 C15.632141,47.132141 15,45.6060176 15,44.0147186 L15,27.9852814 C15,26.3939824 15.632141,24.867859 16.7573593,23.7426407 L23.7426407,16.7573593 C24.867859,15.632141 26.3939824,15 27.9852814,15 Z" id="Rectangle" fill="#FFFFFF"></path>
    </g>
</svg>