<?xml version="1.0" encoding="UTF-8"?>
<svg width="72px" height="72px" viewBox="0 0 72 72" version="1.1" xmlns="http://www.w3.org/2000/svg" xmlns:xlink="http://www.w3.org/1999/xlink">
    <title>Badge / level5_inner</title>
    <g id="Badge-/-level5_inner" stroke="none" stroke-width="1" fill="none" fill-rule="evenodd">
        <path d="M24.6347159,52.197233 L15.086894,45.3306104 C13.3626301,44.0905507 12.6070688,41.9044024 13.1995002,39.8696074 L16.4885503,28.5785206 L20.056184,18.2789734 C20.736028,16.3172234 22.5589494,14.9756983 24.6408724,14.9050076 L35.519949,14.536208 L46.4041369,14.5 C48.4875477,14.4932153 50.3596774,15.7663386 51.1123731,17.7018167 L55.0199245,27.7496763 C55.0516847,27.8313442 55.081291,27.9138273 55.1087132,27.9970407 L58.7486546,39.0425771 C59.4120036,41.0555339 58.7334828,43.2666211 57.0537084,44.5658775 L47.7086588,51.7944553 L39.3643082,58.4096688 C37.5845851,59.8205932 35.0761178,59.866608 33.245468,58.5219115 L24.6347159,52.197233 Z" id="Star-Flat" fill="#FFFFFF"></path>
    </g>
</svg>