<?xml version="1.0" encoding="UTF-8"?>
<svg width="72px" height="72px" viewBox="0 0 72 72" version="1.1" xmlns="http://www.w3.org/2000/svg" xmlns:xlink="http://www.w3.org/1999/xlink">
    <title>Badge / level50_inner</title>
    <g id="Badge-/-level50_inner" stroke="none" stroke-width="1" fill="none" fill-rule="evenodd">
        <path d="M13.8457992,17.0081784 L23.6412021,18.7573575 C24.5036156,18.9113599 25.3902576,18.6806984 26.0682874,18.1259467 L34.7335244,11.0362073 C35.4702562,10.4334268 36.5297438,10.4334268 37.2664756,11.0362073 L45.9317126,18.1259467 C46.6097424,18.6806984 47.4963844,18.9113599 48.3587979,18.7573575 L58.1542008,17.0081784 C59.2415694,16.8140055 60.2804642,17.5380836 60.4746372,18.6254523 C60.5169804,18.862574 60.516141,19.1053947 60.4721595,19.342218 L55.2572125,47.4227021 C54.7824054,49.9793556 53.0945991,52.1457247 50.731704,53.2313793 L37.6700007,59.2327024 C36.6099358,59.7197592 35.3900642,59.7197592 34.3299993,59.2327024 L21.268296,53.2313793 C18.9054009,52.1457247 17.2175946,49.9793556 16.7427875,47.4227021 L11.5278405,19.342218 C11.3261547,18.2562177 12.0430333,17.2123419 13.1290336,17.0106561 C13.3658569,16.9666746 13.6086775,16.9658353 13.8457992,17.0081784 Z" id="Path" fill="#FFFFFF"></path>
    </g>
</svg>