<?xml version="1.0" encoding="UTF-8"?>
<svg width="72px" height="72px" viewBox="0 0 72 72" version="1.1" xmlns="http://www.w3.org/2000/svg" xmlns:xlink="http://www.w3.org/1999/xlink">
    <title>Badge / level3_inner</title>
    <g id="Badge-/-level3_inner" stroke="none" stroke-width="1" fill="none" fill-rule="evenodd">
        <path d="M35.8544323,16.5 C42.5603579,16.5 48.9772339,17.3142695 55.1127909,18.9403855 C57.8720367,19.6721748 59.5984053,22.4098874 59.0695564,25.2151096 L58.9161688,25.9952446 C57.6492744,32.2345248 55.3583898,38.2325914 52.0339947,44.0033008 C48.4623738,50.2031617 44.2319724,54.8983246 39.3449322,58.1412366 L38.808,58.49 L38.6366496,58.5935691 C37.0148548,59.5241021 35.0268922,59.5572143 33.3750071,58.6812087 L33.244,58.609 L33.1538672,58.5548802 C27.4610226,55.1837021 22.8566119,50.5438551 19.3062949,44.5841668 L18.9660053,44.0033008 C15.6094458,38.1767582 13.4677002,31.8512809 12.5350759,24.997545 C12.1766452,22.3675806 13.7646861,19.874921 16.2717218,19.0736995 L16.531,18.998 L17.3695077,18.774139 C22.9281007,17.3348182 28.7645985,16.5777965 34.8855941,16.5056926 L35.8544323,16.5 Z" id="Path" fill="#FFFFFF"></path>
    </g>
</svg>