<?xml version="1.0" encoding="UTF-8"?>
<svg width="72px" height="72px" viewBox="0 0 72 72" version="1.1" xmlns="http://www.w3.org/2000/svg" xmlns:xlink="http://www.w3.org/1999/xlink">
    <title>Badge / level7_inner</title>
    <g id="Badge-/-level7_inner" stroke="none" stroke-width="1" fill="none" fill-rule="evenodd">
        <path d="M47.5119469,15.9725146 L56.9485165,28.1544765 C57.8703305,29.3444749 58.2101938,30.8974518 57.8718989,32.3737956 L54.4087892,47.487062 C54.0704943,48.9634057 53.0908608,50.2024337 51.7472,50.8534058 L37.9922031,57.5173789 C36.6485423,58.1683511 35.087096,58.1604167 33.7498732,57.4958219 L20.0607825,50.6923941 C18.7235597,50.0277993 17.7561016,48.7788774 17.4322729,47.2991691 L14.1172527,32.1514602 C13.793424,30.6717519 14.1484698,29.1223062 15.0818847,27.9417349 L24.637213,15.8562787 C25.570628,14.6757075 26.9808209,13.9925021 28.468599,14 L43.6989186,14.0774536 C45.1866968,14.0850136 46.5901329,14.7825162 47.5119469,15.9725146 Z" id="Polygon-Flat" fill="#FFFFFF"></path>
    </g>
</svg>