<?xml version="1.0" encoding="UTF-8"?>
<svg width="24px" height="24px" viewBox="0 0 24 24" version="1.1" xmlns="http://www.w3.org/2000/svg" xmlns:xlink="http://www.w3.org/1999/xlink">
    <title>Icon / Filled / Folder / filled_warning</title>
    <g id="Icon-/-Filled-/-Folder-/-filled_warning" stroke="none" stroke-width="1" fill="none" fill-rule="evenodd">
        <path d="M4.88979533,20 L19.1102047,20 C20.5643501,20 21.4708304,18.4289284 20.7437577,17.1777157 L13.633553,4.93840953 C12.9064803,3.68719682 11.0935197,3.68719682 10.366447,4.93840953 L3.25624234,17.1777157 C2.52916961,18.4289284 3.43564989,20 4.88979533,20 Z M12,9.51724138 C12.4659903,9.51724138 12.84375,9.89500112 12.84375,10.3609914 L12.84375,13.3631466 C12.84375,13.8291368 12.4659903,14.2068966 12,14.2068966 C11.5340097,14.2068966 11.15625,13.8291368 11.15625,13.3631466 L11.15625,10.3609914 C11.15625,9.89500112 11.5340097,9.51724138 12,9.51724138 Z M12.018319,17.1862069 L11.981681,17.1862069 C11.463676,17.1862069 11.04375,16.7662809 11.04375,16.2482759 C11.04375,15.7302709 11.463676,15.3103448 11.981681,15.3103448 L12.018319,15.3103448 C12.536324,15.3103448 12.95625,15.7302709 12.95625,16.2482759 C12.95625,16.7662809 12.536324,17.1862069 12.018319,17.1862069 Z" id="Shape" fill="#FFFFFF" fill-rule="nonzero"></path>
    </g>
</svg>