<?xml version="1.0" encoding="UTF-8"?>
<svg width="72px" height="72px" viewBox="0 0 72 72" version="1.1" xmlns="http://www.w3.org/2000/svg" xmlns:xlink="http://www.w3.org/1999/xlink">
    <title>Badge / level40_inner</title>
    <g id="Badge-/-level40_inner" stroke="none" stroke-width="1" fill="none" fill-rule="evenodd">
        <path d="M13.8209245,17.0037365 L23.6412021,18.7573575 C24.5036156,18.9113599 25.3902576,18.6806984 26.0682874,18.1259467 L34.7335244,11.0362073 C35.4702562,10.4334268 36.5297438,10.4334268 37.2664756,11.0362073 L45.9317126,18.1259467 C46.6097424,18.6806984 47.4963844,18.9113599 48.3587979,18.7573575 L58.1790755,17.0037365 C59.2664441,16.8095635 60.3053389,17.5336417 60.4995119,18.6210104 C60.5408831,18.8526891 60.541039,19.0898514 60.4999724,19.3215843 L55.1703343,49.3959706 C54.4933325,53.2161951 51.17282,56 47.2930717,56 L24.7069283,56 C20.82718,56 17.5066675,53.2161951 16.8296657,49.3959706 L11.5000276,19.3215843 C11.3072843,18.2339613 12.0327276,17.1960193 13.1203506,17.003276 C13.3520835,16.9622094 13.5892458,16.9623653 13.8209245,17.0037365 Z" id="Path" fill="#FFFFFF"></path>
    </g>
</svg>