<?xml version="1.0" encoding="UTF-8"?>
<svg width="24px" height="24px" viewBox="0 0 24 24" version="1.1" xmlns="http://www.w3.org/2000/svg" xmlns:xlink="http://www.w3.org/1999/xlink">
    <title>Icon / Filled / Folder / filled_understood</title>
    <g id="Icon-/-Filled-/-Folder-/-filled_understood" stroke="none" stroke-width="1" fill="none" fill-rule="evenodd">
        <path d="M12.8474094,2.35452236 C13.885383,1.47475174 14.8173541,2.39162557 15.6118925,3.37253311 L15.7012514,3.4837597 C16.5164257,4.50413739 16.896938,5.20519347 17.573079,6.45345067 C18.2023878,7.61607163 19,9.78891004 19,11.0676479 L18.9982623,11.4602681 C18.9876271,12.5429001 18.9217408,13.3886119 18.6297323,14.4132675 L18.4373147,15.0832437 C17.6686959,17.7193108 17.0159257,19.2763685 14.5216634,19.7807735 C13.10206,20.068163 10.6477559,20.1900858 9.65842399,19.3946847 C7.99649075,18.0581246 7.24548521,16.7868457 6.69332563,15.7108913 L6.48407363,15.2966137 C6.20747049,14.7436067 5.49035123,13.0903916 6.59969082,12.2935391 C7.07533115,11.9524455 7.88026093,12.0496935 8.21540442,12.3820783 C9.4579233,13.6143694 9.58232154,15.2464067 11.9078369,15.2464067 C13.3786631,15.2464067 13.9391869,14.2869904 13.9391869,12.58878 C13.9391869,11.3521345 12.1390712,10.1619357 9.97161486,11.0502304 C8.24621513,12.1140246 7.17909072,11.547078 6.86322591,10.7478144 L6.82781627,10.6508891 L6.79127892,10.5445502 C6.5448802,9.79724635 6.61229951,9.16312262 10.1911412,7.82363067 C10.6137438,7.6657143 11.3830789,7.698766 12.0161927,7.78792773 C12.8897042,8.04621996 13.6148836,8.35641256 14.1913276,8.71620571 C14.929645,9.17703372 15.7391454,9.82868756 16.6173642,10.6711738 C16.8017985,10.848104 17.0950516,10.8396614 17.2723632,10.6523169 C17.4496747,10.4649723 17.4439006,10.1696692 17.2594662,9.99273903 C16.7803672,9.5331334 16.3184045,9.12578598 15.8732309,8.77069768 L15.8624136,8.73672043 C15.3582916,7.35121785 14.8646161,6.25548747 14.3777651,5.44628421 C13.9445436,4.72621943 13.3206019,3.99276536 12.5068246,3.24305992 C12.4746432,2.90001775 12.5672164,2.59132364 12.8474094,2.35452236 Z M10.9668008,4.0469269 L11.0518595,3.98215031 C11.2745376,3.81947674 11.4718477,3.74284792 11.8308451,3.8850515 C12.6071746,4.59396408 13.1906226,5.27558261 13.5826599,5.9271944 C13.8835044,6.42723311 14.1925809,7.05721299 14.5092459,7.81609175 C13.7940229,7.39877614 12.9130339,7.05268239 11.8658275,6.77510676 L11.6720359,6.53222118 C11.6390059,6.49065589 11.6057339,6.44860798 11.5724054,6.40616676 L11.3960913,6.1777103 C10.8136406,5.40671311 10.3189783,4.5550951 10.9668008,4.0469269 Z" id="Shape" fill="#FFFFFF" fill-rule="nonzero"></path>
    </g>
</svg>