<?xml version="1.0" encoding="UTF-8"?>
<svg width="24px" height="24px" viewBox="0 0 24 24" version="1.1" xmlns="http://www.w3.org/2000/svg" xmlns:xlink="http://www.w3.org/1999/xlink">
    <title>Icon / Filled / Folder / filled_rating_crown</title>
    <g id="Icon-/-Filled-/-Folder-/-filled_rating_crown" stroke="none" stroke-width="1" fill="none" fill-rule="evenodd">
        <path d="M12.006194,4 C12.2804747,4 12.5305167,4.06540388 12.7563199,4.19621163 C12.9821231,4.32701939 13.1625206,4.50276893 13.2975123,4.72346025 C13.4325041,4.94415157 13.5,5.18550018 13.5,5.44750606 C13.5,5.71705917 13.4325041,5.96227898 13.2975123,6.18316549 C13.1625206,6.404052 12.9821231,6.5799154 12.7563199,6.71075569 L15.4435899,11.5643277 C15.5815617,11.7639089 15.7563694,11.7899721 15.968013,11.6425174 L18.1781768,9.33989673 C18.0593923,9.13003568 18,8.89851056 18,8.64532138 C18,8.38325043 18.0675127,8.14188556 18.202538,7.92122677 C18.3375634,7.70056798 18.5179776,7.52481844 18.7437808,7.39397816 C18.969584,7.26313787 19.2198274,7.19771773 19.494511,7.19771773 C19.7726861,7.19771773 20.0256488,7.26313787 20.2533991,7.39397816 C20.4811495,7.52481844 20.6625206,7.69962458 20.7975123,7.91839656 C20.9325041,8.13716855 21,8.37947682 21,8.64532138 C21,8.91526486 20.9315305,9.16058227 20.7945916,9.38127359 C20.6576527,9.60196491 20.4753248,9.77771445 20.247608,9.90852221 C20.0847544,10.0020705 19.9099761,10.0621678 19.7232729,10.0888143 L18.6881679,14.8280591 L18.18147,17.2645439 C18.0360821,17.8406994 17.5858498,18.2705453 17.2433245,18.5609529 C16.9007991,18.8513606 16.024907,19 15.4030968,19 L8.60301533,19 C7.98112362,19 7.07922209,18.853651 6.73645226,18.5609529 C6.39368244,18.2682549 5.96970407,17.8361186 5.82537564,17.2645439 L5.33200224,14.8280591 L4.28780473,10.091804 C4.09296054,10.0668449 3.91161924,10.005751 3.74378084,9.90852221 C3.51797764,9.77771445 3.33756337,9.60196491 3.20253802,9.38127359 C3.06751267,9.16058227 3,8.91526486 3,8.64532138 C3,8.38325043 3.06751267,8.14188556 3.20253802,7.92122677 C3.33756337,7.70056798 3.51797764,7.52481844 3.74378084,7.39397816 C3.96958405,7.26313787 4.21982744,7.19771773 4.49451103,7.19771773 C4.77268607,7.19771773 5.02564877,7.26313787 5.25339913,7.39397816 C5.48114949,7.52481844 5.66252056,7.69962458 5.79751234,7.91839656 C5.93250411,8.13716855 6,8.37947682 6,8.64532138 C6,8.85527742 5.9585802,9.05033621 5.8757406,9.23049773 L5.8356,9.31024634 L8.05741354,11.6413327 C8.17558193,11.7218918 8.27307085,11.7527925 8.3498803,11.7340349 C8.42668976,11.7152773 8.49488107,11.6628546 8.55445424,11.576767 L11.2500459,6.70934707 C11.0234694,6.57865415 10.8419403,6.40326029 10.7054588,6.18316549 C10.5684863,5.96227898 10.5,5.71705917 10.5,5.44750606 C10.5,5.18172656 10.5675127,4.93943456 10.702538,4.72063004 C10.8375634,4.50182552 11.0189344,4.32701939 11.2466512,4.19621163 C11.474368,4.06540388 11.7275489,4 12.006194,4 Z" id="Path" fill="#FFFFFF" fill-rule="nonzero"></path>
    </g>
</svg>