<?xml version="1.0" encoding="UTF-8"?>
<svg width="48px" height="48px" viewBox="0 0 48 48" version="1.1" xmlns="http://www.w3.org/2000/svg" xmlns:xlink="http://www.w3.org/1999/xlink">
    <title>Mini / mini_gift_lock</title>
    <g id="Mini-/-mini_gift_lock" stroke="none" stroke-width="1" fill="none" fill-rule="evenodd">
        <path d="M34.6666667,26.3333333 C40.1895142,26.3333333 44.6666667,30.8104858 44.6666667,36.3333333 C44.6666667,41.8561808 40.1895142,46.3333333 34.6666667,46.3333333 C29.1438192,46.3333333 24.6666667,41.8561808 24.6666667,36.3333333 C24.6666667,30.8104858 29.1438192,26.3333333 34.6666667,26.3333333 Z M22,3.06666667 C27.8542183,3.06666667 32.6,7.81244832 32.6,13.6666667 L32.5999548,19.4672746 C34.7232323,19.9235567 36.4292218,21.5034006 37.0650949,23.5539779 C36.287246,23.4090943 35.4858038,23.3333333 34.6666667,23.3333333 C27.4869649,23.3333333 21.6666667,29.1536316 21.6666667,36.3333333 C21.6666667,38.3649522 22.1326999,40.2877232 22.9636948,42.0005746 L12.6666667,42 C9.35295817,42 6.66666667,39.3137085 6.66666667,36 L6.66666667,25.3333333 C6.66666667,22.454169 8.69461762,20.048658 11.4000452,19.4672746 L11.4,13.6666667 C11.4,7.81244832 16.1457817,3.06666667 22,3.06666667 Z M34.6666667,29.3061633 C33.7052821,29.3061633 32.9259259,30.0855195 32.9259259,31.0469041 L32.9259259,36.9308449 C32.9259259,37.7182476 33.2996271,38.4589206 33.9329602,38.9267797 L37.3333333,41.3922119 C38.1066056,41.9634476 39.1965447,41.7996646 39.7677804,41.0263923 L39.8381314,40.9238035 C40.323622,40.1593232 40.1416125,39.1383445 39.4019608,38.5919452 L36.4074074,36.4264726 L36.4074074,31.0469041 C36.4074074,30.0855195 35.6280512,29.3061633 34.6666667,29.3061633 Z M22,7.6 C18.6494725,7.6 15.9333333,10.3161392 15.9333333,13.6666667 L15.9326667,19.3326667 L28.0666667,19.3326667 L28.0666667,13.6666667 C28.0666667,10.3161392 25.3505275,7.6 22,7.6 Z" id="Shape" fill="#FFFFFF" fill-rule="nonzero"></path>
    </g>
</svg>