<?xml version="1.0" encoding="UTF-8"?>
<svg width="72px" height="72px" viewBox="0 0 72 72" version="1.1" xmlns="http://www.w3.org/2000/svg" xmlns:xlink="http://www.w3.org/1999/xlink">
    <title>General / menu_incomes</title>
    <defs>
        <rect id="path-1" x="0" y="0" width="72" height="37"></rect>
        <rect id="path-3" x="0" y="0" width="72" height="42"></rect>
    </defs>
    <g id="General-/-menu_incomes" stroke="none" stroke-width="1" fill="none" fill-rule="evenodd">
        <g id="Group-2">
            <mask id="mask-2" fill="white">
                <use xlink:href="#path-1"></use>
            </mask>
            <g id="Rectangle"></g>
            <g id="Group" mask="url(#mask-2)" stroke="#FFFFFF" stroke-linecap="round" stroke-width="5.4">
                <g transform="translate(35.056529, 35.872413) rotate(66.000000) translate(-35.056529, -35.872413) translate(5.056529, 5.872413)" id="Path">
                    <path d="M7.74068421e-14,27 C7.74068421e-14,27.6514434 0.0207638485,31.2980371 0.0616658298,31.9391554 C1.06104802,47.603977 14.0829009,60 30,60 C46.5685425,60 60,46.5685425 60,30 C60,13.4314575 46.5685425,-1.34265911e-13 30,-1.34265911e-13 C20.9122281,-1.34265911e-13 12.7682399,4.04081874 7.26674545,10.4237463" transform="translate(30.000000, 30.000000) rotate(90.000000) translate(-30.000000, -30.000000) "></path>
                </g>
            </g>
        </g>
        <g id="Group-2-Copy" transform="translate(0.000000, 28.000000)">
            <mask id="mask-4" fill="white">
                <use xlink:href="#path-3"></use>
            </mask>
            <g id="Rectangle"></g>
            <g id="Group" mask="url(#mask-4)" stroke="#FFFFFF" stroke-dasharray="5,14" stroke-linecap="round" stroke-width="5.4">
                <g transform="translate(35.056529, 7.872413) rotate(66.000000) translate(-35.056529, -7.872413) translate(-2.745677, -29.929792)" id="Path">
                    <path d="M7.80220532,34.8022053 C7.80220532,35.4536487 7.82296917,39.1002424 7.86387115,39.7413607 C8.86325334,55.4061823 21.8851062,67.8022053 37.8022053,67.8022053 C54.3707478,67.8022053 67.8022053,54.3707478 67.8022053,37.8022053 C67.8022053,21.2336628 54.3707478,7.80220532 37.8022053,7.80220532 C28.7144334,7.80220532 20.5704452,11.8430241 15.0689508,18.2259516" transform="translate(37.802205, 37.802205) rotate(72.000000) translate(-37.802205, -37.802205) "></path>
                </g>
            </g>
        </g>
        <g id="$" transform="translate(23.000000, 16.000000)" fill="#FFFFFF" fill-rule="nonzero">
            <path d="M12.034384,39.8 C13.0659026,39.8 14.182808,39.2321492 14.182808,37.869307 L14.182808,35.752184 C20.3489971,35.093477 24,31.5046593 24,26.280431 C24,21.7830518 21.2722063,19.0573675 15.6103152,17.8308096 L10.9570201,16.7859639 C8.04584527,16.1499709 6.62464183,14.8325568 6.62464183,12.9018637 C6.62464183,10.585032 8.64183381,8.90419336 11.8051576,8.90419336 C14.3724928,8.90419336 16.1604585,9.76732673 18.1547278,11.9705882 C19.1633238,13.0154339 19.9426934,13.4015725 20.9971347,13.4015725 C22.2808023,13.4015725 23.2664756,12.5157251 23.2664756,11.198311 C23.2664756,9.92632499 22.5100287,8.54076878 21.226361,7.2914968 C19.530086,5.70151427 17.1653295,4.65666861 14.3,4.29324403 L14.3,1.907979 C14.3,0.56785087 13.2034384,0 12.1489971,0 C11.1174785,0 10,0.545136833 10,1.907979 L10,4.22510192 C4.06303725,4.77023879 0.481375358,8.29091439 0.481375358,13.3334304 C0.481375358,17.7399534 3.20916905,20.6700641 8.43553009,21.8284799 L13.0888252,22.8960396 C16.4813754,23.6910309 17.8796562,24.8721607 17.8796562,26.8709959 C17.8796562,29.460396 15.8395415,31.0958066 12.1948424,31.0958066 C9.46704871,31.0958066 7.19770774,30.073675 5.13467049,27.8704135 C3.96561605,26.7119977 3.32378223,26.4621433 2.45272206,26.4621433 C1.05444126,26.4621433 0,27.3479907 0,28.8698311 C0,30.2099592 0.779369628,31.5955154 2.17765043,32.7993593 C4.01146132,34.457484 6.67679058,35.4796156 9.863037,35.7748981 L9.863037,37.869307 C9.863037,39.2321492 10.9799427,39.8 12.034384,39.8 Z" id="Path"></path>
        </g>
        <path d="M66.2217021,28.4347599 L72.4528242,38.8199633 C72.7823745,39.3692138 72.6042723,40.0816225 72.0550218,40.4111728 C71.8747737,40.5193217 71.668522,40.5764501 71.4583183,40.5764501 L57.5551143,40.5764501 C56.9145837,40.5764501 56.3953311,40.0571975 56.3953311,39.4166669 C56.3953311,39.2064632 56.4524595,39.0002115 56.5606084,38.8199633 L62.7917304,28.4347599 C63.3600268,27.4875994 64.5885473,27.1804692 65.5357078,27.7487655 C65.817207,27.9176651 66.0528026,28.1532607 66.2217021,28.4347599 Z" id="Triangle" fill="#FFFFFF" transform="translate(64.506716, 33.076450) rotate(168.000000) translate(-64.506716, -33.076450) "></path>
    </g>
</svg>