<?xml version="1.0" encoding="UTF-8"?>
<svg width="24px" height="24px" viewBox="0 0 24 24" version="1.1" xmlns="http://www.w3.org/2000/svg" xmlns:xlink="http://www.w3.org/1999/xlink">
    <title>Icon / Filled / checklist</title>
    <g id="Icon-/-Filled-/-checklist" stroke="none" stroke-width="1" fill="none" fill-rule="evenodd">
        <path d="M12,4 C16.416,4 20,7.584 20,12 C20,16.416 16.416,20 12,20 C7.584,20 4,16.416 4,12 C4,7.584 7.584,4 12,4 Z M16.4818432,9.54348643 C16.1872637,9.22288416 15.7053635,9.21829494 15.4054889,9.53323613 L10.7733532,14.3979954 L8.99451107,12.5296222 C8.69463652,12.2146811 8.21273632,12.2192703 7.91815685,12.5398725 C7.62357737,12.8604748 7.62786989,13.3756846 7.92774444,13.6906258 L10.1546212,16.0293878 C10.4981762,16.3902041 11.0487833,16.3902041 11.3923383,16.0293878 L16.4722556,10.6942397 C16.7721301,10.3792985 16.7764226,9.8640887 16.4818432,9.54348643 Z" id="Shape" fill="#FFFFFF" fill-rule="nonzero"></path>
    </g>
</svg>