<?xml version="1.0" encoding="UTF-8"?>
<svg width="84px" height="84px" viewBox="0 0 84 84" version="1.1" xmlns="http://www.w3.org/2000/svg" xmlns:xlink="http://www.w3.org/1999/xlink">
    <title>topic blue</title>
    <defs>
        <linearGradient x1="50%" y1="0%" x2="50%" y2="100%" id="linearGradient-1">
            <stop stop-color="#4BB7FF" offset="0%"></stop>
            <stop stop-color="#015EC1" offset="100%"></stop>
        </linearGradient>
        <linearGradient x1="50%" y1="0%" x2="50%" y2="99.39588%" id="linearGradient-2">
            <stop stop-color="#0888DF" offset="0%"></stop>
            <stop stop-color="#0042AC" offset="100%"></stop>
        </linearGradient>
    </defs>
    <g id="topic-blue" stroke="none" stroke-width="1" fill="none" fill-rule="evenodd">
        <path d="M42,4.47368421 C52.6535116,4.47368421 62.3029461,8.44172846 69.286057,14.8715044 C76.2233062,21.2590526 80.5263158,30.0798831 80.5263158,39.8304382 C80.5263158,49.5809933 76.2233062,58.4018239 69.286057,64.7893721 C62.3029461,71.219148 52.6535116,75.1871923 42,75.1871923 C37.5267059,75.1871923 33.2308553,74.4877643 29.2348341,73.2001187 C29.0182529,73.1303293 28.8019654,73.0586229 28.5862413,72.9852481 C28.3948519,73.106612 28.2000814,73.2292009 28.0019297,73.3530173 C26.1800899,74.4914063 24.5768234,75.4183854 23.1902273,76.1332316 C19.9632993,77.7968433 15.8838664,78.895322 10.968708,79.4573148 L10.3331597,79.5269374 C10.8475353,78.5381033 11.3155893,77.6262907 11.7364879,76.7897918 L12.0856904,76.0911971 C13.1548056,73.9371347 13.8747553,72.3343394 14.2288664,71.2486595 C14.8154652,69.4501884 15.1095499,67.6701625 15.2363061,66.0328103 C15.2549358,65.7921643 15.2704685,65.5479168 15.2812363,65.2994157 C15.1072303,65.1457013 14.9345381,64.9902431 14.7631844,64.8330639 C7.79678435,58.4429296 3.47368421,49.6037286 3.47368421,39.8304382 C3.47368421,30.0798831 7.77669379,21.2590526 14.713943,14.8715044 C21.6970539,8.44172846 31.3464884,4.47368421 42,4.47368421 Z" id="Combined-Shape-Copy-2" stroke="url(#linearGradient-2)" stroke-width="2.94736842" fill="url(#linearGradient-1)"></path>
        <path d="M9.68078613,24.6137047 C9.8721537,24.8136848 10.1894036,24.8206666 10.3893837,24.629299 C10.3964827,24.6225057 10.4033805,24.6155051 10.410082,24.6083194 C20.5178445,13.7276637 31.3141669,8.50123177 42.7990494,8.92902374 C54.2584365,9.35586606 64.9235425,15.3681505 74.7943671,26.9658769 C75.0309355,27.243826 75.4426222,27.2904538 75.7353592,27.0724506 C76.0315877,26.8518473 76.1075038,26.440096 75.9094038,26.1283693 C67.7821181,13.3374534 56.7453333,6.69089625 42.7990494,6.18869781 C28.8220513,5.68539338 17.7581791,11.5492352 9.60743269,23.7802233 C9.4336795,24.0409463 9.46416665,24.3873362 9.68078613,24.6137047 Z" id="Path-22" fill="#71D0FF" opacity="0.37491644"></path>
    </g>
</svg>