<?xml version="1.0" encoding="UTF-8"?>
<svg width="20px" height="20px" viewBox="0 0 20 20" version="1.1" xmlns="http://www.w3.org/2000/svg" xmlns:xlink="http://www.w3.org/1999/xlink">
    <title>general</title>
    <g id="general" stroke="none" stroke-width="1" fill="none" fill-rule="evenodd">
        <path d="M14.4576257,1.02558449 C15.189053,1.1696007 15.6657078,1.88165413 15.5222641,2.61600035 L14.8818905,5.62412405 L16.6504058,5.62421139 C17.3957661,5.62421139 18,6.23085664 18,6.97919149 C18,7.72752633 17.3957661,8.33417159 16.6504058,8.33417159 L14.3525674,8.33397488 L13.6850637,11.7513347 L15.3008116,11.7515071 C16.0461719,11.7515071 16.6504058,12.3581524 16.6504058,13.1064872 C16.6504058,13.8548221 16.0461719,14.4614673 15.3008116,14.4614673 L13.1557407,14.4614328 L12.4307242,17.9055215 C12.2872804,18.6398677 11.5780573,19.1184247 10.84663,18.9744085 C10.1152028,18.8303923 9.63854794,18.1183389 9.7819917,17.3839927 L10.4051821,14.4614328 L7.75733538,14.4614328 L7.03234733,17.9055215 C6.90989534,18.5324024 6.37514133,18.9728813 5.76623746,18.9987859 L5.71387199,19 C5.62631985,19.0002755 5.53745163,18.9919715 5.44825318,18.9744085 C4.71682589,18.8303923 4.24017107,18.1183389 4.38361482,17.3839927 L5.00702313,14.4614328 L3.34959422,14.4614673 C2.60423391,14.4614673 2,13.8548221 2,13.1064872 C2,12.3581524 2.60423391,11.7515071 3.34959422,11.7515071 L5.53634616,11.7513347 L6.20384986,8.33397488 L4.69918844,8.33417159 C3.95382813,8.33417159 3.34959422,7.72752633 3.34959422,6.97919149 C3.34959422,6.23085664 3.95382813,5.62421139 4.69918844,5.62421139 L6.73317289,5.62412405 L7.4751547,2.09447154 C7.60110532,1.44967974 8.16325465,1.00209364 8.79363004,1 L8.84631136,1.00087004 C8.91674267,1.00340951 8.98789009,1.01153413 9.05924885,1.02558449 C9.79067614,1.1696007 10.267331,1.88165413 10.1238872,2.61600035 L9.48348515,5.62412405 L12.1315782,5.62412405 L12.8735316,2.09447154 C13.0169753,1.36012532 13.7261984,0.881568286 14.4576257,1.02558449 Z M10.9345052,11.7513347 L11.6020089,8.33397488 L8.95416211,8.33397488 L8.28665842,11.7513347 L10.9345052,11.7513347 Z" id="Combined-Shape-Copy-6" fill="#FFFFFF"></path>
    </g>
</svg>