<?xml version="1.0" encoding="UTF-8"?>
<svg width="84px" height="84px" viewBox="0 0 84 84" version="1.1" xmlns="http://www.w3.org/2000/svg" xmlns:xlink="http://www.w3.org/1999/xlink">
    <title>topic rose</title>
    <defs>
        <linearGradient x1="50%" y1="4.31422203%" x2="50%" y2="99.6023762%" id="linearGradient-1">
            <stop stop-color="#FF7999" offset="0%"></stop>
            <stop stop-color="#E4215A" offset="98.5968743%"></stop>
        </linearGradient>
        <linearGradient x1="50%" y1="0%" x2="50%" y2="96.4024371%" id="linearGradient-2">
            <stop stop-color="#F83B72" offset="0%"></stop>
            <stop stop-color="#BA0940" offset="100%"></stop>
        </linearGradient>
    </defs>
    <g id="topic-rose" stroke="none" stroke-width="1" fill="none" fill-rule="evenodd">
        <path d="M42,4.42105263 C52.6675181,4.42105263 62.3294728,8.39460913 69.3217075,14.8327858 C76.2697184,21.230243 80.5789474,30.0648871 80.5789474,39.8304382 C80.5789474,49.5959894 76.2697184,58.4306335 69.3217075,64.8280906 C62.3294728,71.2662674 52.6675181,75.2398239 42,75.2398239 C37.5210466,75.2398239 33.2197662,74.5394876 29.2186919,73.2502137 C29.0098956,73.1829329 28.8013719,73.1138726 28.5929684,73.0432995 C28.4083865,73.1602808 28.2206704,73.2783974 28.0298198,73.3976517 C26.2065565,74.5369301 24.6020235,75.4646079 23.2143446,76.1800123 C19.9826132,77.8461004 15.8972513,78.9467661 10.9744394,79.5096334 L10.3380323,79.5793501 C12.3422829,75.5502987 13.657562,72.8305079 14.1788292,71.2323391 C14.7640488,69.4380965 15.0573738,67.6622454 15.1838316,66.0287479 C15.2017691,65.7970433 15.21683,65.561992 15.2283048,65.3228731 C15.0601712,65.1741519 14.8932645,65.0238038 14.727607,64.8718496 C7.75040024,58.4718025 3.42105263,49.6187586 3.42105263,39.8304382 C3.42105263,30.0648871 7.7302816,21.230243 14.6782925,14.8327858 C21.6705272,8.39460913 31.3324819,4.42105263 42,4.42105263 Z" id="Combined-Shape-Copy-2" stroke="url(#linearGradient-2)" stroke-width="2.84210526" fill="url(#linearGradient-1)"></path>
        <path d="M9.68078613,24.6137047 C9.8721537,24.8136848 10.1894036,24.8206666 10.3893837,24.629299 C10.3964827,24.6225057 10.4033805,24.6155051 10.410082,24.6083194 C20.5178445,13.7276637 31.3141669,8.50123177 42.7990494,8.92902374 C54.2584365,9.35586606 64.9235425,15.3681505 74.7943671,26.9658769 C75.0309355,27.243826 75.4426222,27.2904538 75.7353592,27.0724506 C76.0315877,26.8518473 76.1075038,26.440096 75.9094038,26.1283693 C67.7821181,13.3374534 56.7453333,6.69089625 42.7990494,6.18869781 C28.8220513,5.68539338 17.7581791,11.5492352 9.60743269,23.7802233 C9.4336795,24.0409463 9.46416665,24.3873362 9.68078613,24.6137047 Z" id="Path-22" fill="#FFC7D6" opacity="0.37491644"></path>
    </g>
</svg>